if (_typeface_js && _typeface_js.loadFace) _typeface_js.loadFace({"glyphs":{"0":{"ha":778,"x_min":21,"x_max":764,"o":"m 21 481 q 48 290 21 381 q 124 130 75 199 q 242 20 174 61 q 394 -21 311 -21 q 573 25 501 -21 q 687 142 644 71 q 747 303 729 214 q 764 479 764 392 q 735 672 764 579 q 657 834 707 764 q 540 946 607 904 q 394 988 472 988 q 231 943 301 988 q 115 827 161 899 q 44 665 68 756 q 21 481 21 574 m 624 479 q 610 325 624 403 q 569 184 597 247 q 497 81 540 121 q 393 42 453 42 q 294 79 336 42 q 224 178 253 117 q 182 319 196 240 q 168 481 168 397 q 183 644 168 564 q 226 789 197 725 q 297 892 254 853 q 393 931 339 931 q 490 894 447 931 q 562 794 532 857 q 608 650 592 732 q 624 479 624 568 z "},"1":{"ha":778,"x_min":215,"x_max":478,"o":"m 478 972 l 215 931 l 221 882 l 339 903 l 339 0 l 478 0 l 478 972 z "},"2":{"ha":778,"x_min":104,"x_max":692,"o":"m 121 750 l 182 750 q 206 814 189 782 q 249 871 224 846 q 310 912 275 896 q 389 928 346 928 q 533 882 489 928 q 578 750 578 836 q 567 675 578 710 q 540 607 557 640 q 500 542 522 574 q 454 479 478 511 l 104 0 l 692 0 l 692 56 l 283 56 l 546 414 q 603 496 576 456 q 650 576 631 536 q 681 659 669 617 q 692 750 692 701 q 669 858 692 813 q 606 932 646 903 q 515 975 567 961 q 406 989 464 989 q 294 970 343 989 q 210 919 246 951 q 153 844 175 888 q 121 750 131 800 z "},"3":{"ha":778,"x_min":149,"x_max":667,"o":"m 149 972 l 149 933 l 493 933 l 204 594 l 458 594 q 526 574 506 594 q 546 514 546 553 q 535 468 546 492 q 510 422 525 444 l 204 0 l 349 0 l 632 400 q 657 446 647 421 q 667 506 667 471 q 628 593 667 558 q 515 628 590 628 l 376 628 l 665 972 l 149 972 z "},"4":{"ha":778,"x_min":47,"x_max":750,"o":"m 664 972 l 524 972 l 47 324 l 525 324 l 525 0 l 664 0 l 664 324 l 750 324 l 750 378 l 664 378 l 664 972 m 525 378 l 147 378 l 525 889 l 525 378 z "},"5":{"ha":778,"x_min":190,"x_max":651,"o":"m 501 628 l 333 628 l 333 931 l 632 931 l 632 972 l 194 972 l 194 594 l 435 594 q 505 568 481 594 q 529 508 529 542 q 519 462 529 482 q 496 422 510 442 l 190 0 l 335 0 l 618 400 q 640 442 629 417 q 651 504 651 467 q 612 595 651 563 q 501 628 572 628 z "},"6":{"ha":778,"x_min":53,"x_max":742,"o":"m 493 972 l 354 972 l 128 565 q 100 511 114 540 q 76 447 86 482 q 59 372 65 413 q 53 281 53 331 q 73 168 53 222 q 133 72 93 114 q 233 5 172 31 q 375 -21 293 -21 q 535 5 467 -21 q 650 73 604 31 q 719 169 696 115 q 742 281 742 224 q 719 396 742 342 q 654 491 697 450 q 550 556 611 532 q 410 579 489 579 q 317 566 353 579 q 257 532 281 553 l 493 972 m 603 281 q 591 188 603 233 q 555 108 579 143 q 492 50 531 72 q 400 28 454 28 q 320 47 357 28 q 257 99 283 65 q 215 178 231 132 q 200 281 200 225 q 213 374 200 328 q 250 455 225 419 q 313 513 275 490 q 400 535 350 535 q 491 513 453 535 q 554 456 529 492 q 591 374 579 419 q 603 281 603 328 z "},"7":{"ha":778,"x_min":56,"x_max":739,"o":"m 739 972 l 56 972 l 56 931 l 581 931 l 132 0 l 271 1 l 739 972 z "},"8":{"ha":778,"x_min":108,"x_max":674,"o":"m 613 744 q 598 839 613 796 q 556 913 583 882 q 486 962 528 944 q 390 979 444 979 q 291 961 333 979 q 219 911 249 943 q 176 836 190 879 q 161 743 161 793 q 199 622 161 669 q 289 556 238 574 q 228 522 260 544 q 169 467 196 500 q 126 387 143 433 q 108 279 108 340 q 124 168 108 222 q 173 71 139 114 q 261 1 207 28 q 393 -25 315 -25 q 519 0 465 -25 q 606 68 572 25 q 657 166 640 111 q 674 282 674 221 q 654 395 674 349 q 606 474 635 442 q 546 526 578 507 q 488 556 514 544 q 535 581 513 565 q 574 621 557 597 q 602 675 592 644 q 613 744 613 706 m 503 744 q 495 683 503 713 q 473 629 488 653 q 437 591 458 606 q 389 576 415 576 q 337 591 360 576 q 298 630 314 606 q 274 684 282 654 q 267 744 267 714 q 275 817 267 782 q 299 880 283 853 q 338 924 314 907 q 390 940 361 940 q 440 924 418 940 q 475 879 461 907 q 496 816 489 851 q 503 744 503 781 m 239 300 q 249 384 239 343 q 279 457 260 425 q 326 508 299 489 q 389 526 354 526 q 452 508 424 526 q 501 457 481 489 q 533 384 522 425 q 544 300 544 343 q 537 199 544 249 q 512 109 529 149 q 465 44 494 69 q 393 19 436 19 q 320 44 350 19 q 272 109 290 69 q 247 199 254 149 q 239 300 239 249 z "},"9":{"ha":778,"x_min":63,"x_max":735,"o":"m 351 393 q 443 404 404 393 q 514 435 482 415 l 217 0 l 376 0 l 644 413 q 674 460 658 433 q 703 519 689 486 q 726 596 717 553 q 735 694 735 639 q 712 800 735 749 q 644 892 689 851 q 536 957 600 932 q 392 982 472 982 q 257 961 318 982 q 153 902 196 940 q 86 808 110 864 q 63 682 63 753 q 90 549 63 604 q 158 460 117 494 q 251 409 200 425 q 351 393 303 393 m 213 696 q 224 786 213 742 q 257 865 235 831 q 313 922 279 900 q 392 943 346 943 q 472 922 438 943 q 531 865 507 900 q 567 785 556 831 q 579 692 579 739 q 569 597 579 642 q 536 520 558 553 q 481 468 514 488 q 403 449 449 449 q 320 470 356 449 q 260 526 285 492 q 224 606 236 561 q 213 696 213 650 z "},"\u0007":{"ha":694,"x_min":0,"x_max":0,"o":""},"\u0005":{"ha":417,"x_min":64,"x_max":363,"o":"m 215 733 q 295 749 256 733 q 363 797 335 765 l 338 829 q 281 790 313 803 q 217 778 250 778 q 149 791 182 778 q 93 832 117 804 l 64 797 q 134 749 94 765 q 215 733 174 733 z "},"\u0006":{"ha":278,"x_min":78,"x_max":206,"o":"m 206 828 q 187 873 206 854 q 142 892 168 892 q 97 873 115 892 q 78 828 78 854 q 97 783 78 801 q 142 764 115 764 q 187 783 168 764 q 206 828 206 801 z "},"\b":{"ha":319,"x_min":50,"x_max":278,"o":"m 278 872 q 244 953 278 919 q 164 986 211 986 q 83 953 117 986 q 50 872 50 919 q 83 792 50 825 q 164 758 117 758 q 244 792 211 758 q 278 872 278 825 m 76 872 q 102 934 76 908 q 164 960 128 960 q 226 934 200 960 q 251 872 251 908 q 226 810 251 836 q 164 785 200 785 q 102 810 128 785 q 76 872 76 836 z "},"\n":{"ha":382,"x_min":58,"x_max":342,"o":"m 258 953 q 247 919 254 943 q 229 862 239 894 q 210 794 219 829 q 192 726 200 758 q 236 781 213 751 q 280 835 260 810 q 315 882 300 861 q 336 911 331 903 q 340 922 339 917 q 342 938 342 928 q 329 963 342 953 q 299 974 317 974 q 258 953 269 974 m 125 953 q 113 919 121 943 q 96 862 106 894 q 76 794 86 829 q 58 726 67 758 q 103 781 79 751 q 147 835 126 810 q 182 882 167 861 q 203 911 197 903 q 207 922 206 917 q 208 938 208 928 q 196 963 208 953 q 165 974 183 974 q 125 953 136 974 z "},"\u000b":{"ha":271,"x_min":49,"x_max":210,"o":"m 99 -117 q 118 -54 99 -81 q 165 0 138 -28 l 122 0 q 72 -53 94 -24 q 49 -128 49 -83 q 72 -184 49 -162 q 135 -206 94 -206 q 210 -189 168 -206 l 193 -161 q 154 -168 175 -168 q 114 -155 129 -168 q 99 -117 99 -142 z "},"\f":{"ha":438,"x_min":50,"x_max":397,"o":"m 244 736 l 397 896 l 364 896 l 224 797 l 85 896 l 50 896 l 203 736 l 244 736 z "},"\r":{"ha":278,"x_min":76,"x_max":201,"o":"m 201 681 l 76 681 l 76 0 l 201 0 l 201 681 z "},"\u0019":{"ha":660,"x_min":7,"x_max":646,"o":"m 7 0 l 56 0 l 646 972 l 597 972 l 7 0 z "},"\u001a":{"ha":590,"x_min":76,"x_max":518,"o":"m 201 0 l 201 639 l 389 639 l 389 0 l 514 0 l 514 681 l 201 681 l 201 938 q 235 992 201 976 q 331 1007 268 1007 l 331 1047 q 197 1035 247 1047 q 120 1000 147 1022 q 85 948 93 978 q 76 886 76 918 l 76 0 l 201 0 m 518 815 q 499 860 518 842 q 454 879 481 879 q 409 860 428 879 q 390 815 390 842 q 409 770 390 789 q 454 751 428 751 q 499 770 481 751 q 518 815 518 789 z "},"\u001b":{"ha":722,"x_min":76,"x_max":708,"o":"m 201 914 q 232 988 201 969 q 317 1007 263 1007 q 383 999 356 1007 q 431 983 410 992 l 431 117 q 456 30 431 60 q 536 0 482 0 l 708 0 l 708 42 l 632 42 q 572 62 588 42 q 556 118 556 82 l 556 1042 l 431 1042 l 431 1024 q 383 1040 411 1032 q 306 1047 356 1047 q 194 1033 239 1047 q 124 997 150 1019 q 88 942 99 974 q 76 875 76 910 l 76 0 l 201 0 l 201 639 l 339 639 l 339 681 l 201 681 l 201 914 z "},"\u001c":{"ha":619,"x_min":3,"x_max":571,"o":"m 83 483 q 71 474 83 483 q 43 454 58 465 q 15 433 28 443 q 3 424 3 424 l 3 368 l 83 429 l 83 0 l 571 0 l 571 42 l 222 42 l 222 522 l 326 600 l 326 656 l 222 578 l 222 972 l 83 972 l 83 483 z "},"\u001d":{"ha":382,"x_min":3,"x_max":347,"o":"m 69 474 l 3 424 l 3 368 l 69 418 l 69 117 q 101 31 69 61 q 181 0 132 0 l 347 0 l 347 42 l 272 42 q 194 118 194 42 l 194 506 l 269 561 l 269 617 l 194 561 l 194 1042 l 69 1042 l 69 474 z "},"\u001e":{"ha":840,"x_min":47,"x_max":794,"o":"m 794 972 l 81 972 l 81 931 l 608 931 l 47 0 l 781 0 l 781 42 l 233 42 l 794 972 m 446 1014 l 599 1174 l 565 1174 l 425 1075 l 286 1174 l 251 1174 l 404 1014 l 446 1014 z "},"\u001f":{"ha":590,"x_min":28,"x_max":549,"o":"m 63 681 l 63 639 l 326 639 q 365 628 353 639 q 376 600 376 617 q 373 581 376 590 q 364 563 369 572 l 28 0 l 549 0 l 549 42 l 271 42 q 226 75 226 42 q 236 104 226 88 l 506 556 q 528 592 517 575 q 539 628 539 610 q 457 681 539 681 l 63 681 m 328 736 l 481 896 l 447 896 l 307 797 l 168 896 l 133 896 l 286 736 l 328 736 z "}," ":{"ha":486,"x_min":0,"x_max":0,"o":""},"!":{"ha":236,"x_min":56,"x_max":186,"o":"m 107 217 q 111 199 107 203 q 121 194 115 194 q 131 199 126 194 q 135 217 135 203 q 144 384 138 293 q 158 567 151 475 q 171 747 165 660 q 176 903 176 833 q 160 954 176 938 q 118 971 144 971 q 78 954 94 971 q 63 903 63 938 q 68 747 63 833 q 81 567 74 660 q 97 384 89 475 q 107 217 104 293 m 186 56 q 167 102 186 83 q 121 121 149 121 q 74 102 93 121 q 56 56 56 83 q 74 9 56 28 q 121 -10 93 -10 q 167 9 149 -10 q 186 56 186 28 z "},"\"":{"ha":444,"x_min":82,"x_max":368,"o":"m 82 961 q 87 922 82 950 q 99 857 92 893 q 115 781 107 821 q 132 704 124 740 q 149 781 140 740 q 164 858 157 821 q 176 922 171 894 q 181 961 181 950 q 165 996 181 985 q 131 1007 150 1007 q 97 996 113 1007 q 82 961 82 985 m 269 961 q 274 922 269 950 q 287 857 279 893 q 303 781 294 821 q 319 704 311 740 q 336 781 328 740 q 351 858 344 821 q 363 922 358 894 q 368 961 368 950 q 353 996 368 985 q 318 1007 338 1007 q 285 996 300 1007 q 269 961 269 985 z "},"#":{"ha":736,"x_min":49,"x_max":704,"o":"m 308 706 l 350 876 l 318 876 l 275 706 l 104 706 l 94 672 l 267 672 l 229 517 l 56 517 l 49 483 l 221 483 l 178 311 l 211 311 l 253 483 l 443 483 l 399 306 l 431 306 l 475 483 l 649 483 l 657 517 l 483 517 l 522 672 l 694 672 l 704 706 l 531 706 l 572 876 l 540 876 l 497 706 l 308 706 m 261 517 l 300 672 l 489 672 l 451 517 l 261 517 z "},"$":{"ha":639,"x_min":38,"x_max":608,"o":"m 182 779 q 210 883 182 842 q 311 936 239 925 l 261 639 q 235 661 249 649 q 209 690 221 674 q 190 729 197 707 q 182 779 182 751 m 344 936 q 379 930 361 935 q 411 918 397 925 l 356 583 q 324 601 340 592 q 293 621 308 610 l 344 936 m 363 417 q 406 385 385 404 q 444 342 428 367 q 471 289 461 318 q 481 226 481 260 q 471 153 481 188 q 440 92 461 118 q 383 49 418 65 q 299 33 349 33 l 363 417 m 47 753 q 99 598 47 663 q 235 483 150 533 l 167 75 q 108 138 126 100 q 81 210 89 175 l 38 197 q 75 108 49 156 q 158 29 101 61 l 140 -83 l 175 -83 l 190 13 q 222 3 204 7 q 257 -4 240 -1 l 244 -83 l 278 -83 l 292 -8 q 304 -10 299 -10 q 319 -10 311 -10 q 428 8 375 -10 q 520 60 481 26 q 584 142 560 94 q 608 247 608 189 q 592 356 608 310 q 546 438 575 401 q 476 503 517 474 q 388 565 435 533 l 444 903 q 517 818 494 869 l 564 835 q 523 898 549 868 q 451 951 497 928 l 465 1035 l 431 1035 l 419 964 q 386 972 404 969 q 353 976 368 975 l 361 1035 l 326 1035 l 318 978 q 215 960 264 976 q 128 913 165 943 q 69 842 90 883 q 47 753 47 801 m 331 433 l 264 36 q 199 56 229 40 l 267 467 q 297 449 281 457 q 331 433 314 442 z "},"%":{"ha":1228,"x_min":64,"x_max":1181,"o":"m 592 722 q 569 837 592 786 q 509 922 546 888 q 425 975 472 957 q 328 993 378 993 q 232 975 279 993 q 147 923 185 957 q 87 838 110 889 q 64 722 64 788 q 87 610 64 660 q 147 525 110 560 q 232 472 185 490 q 328 453 279 453 q 424 472 376 453 q 508 525 471 490 q 569 610 546 560 q 592 722 592 660 m 161 715 q 177 828 161 781 q 218 908 193 876 q 272 956 243 940 q 328 971 301 971 q 388 956 357 971 q 443 912 418 942 q 485 835 468 882 q 501 722 501 788 q 484 608 501 654 q 440 534 467 563 q 384 493 414 506 q 328 481 354 481 q 272 492 301 481 q 218 529 243 503 q 177 601 193 556 q 161 715 161 646 m 278 0 l 340 0 l 940 972 l 878 972 l 278 0 m 1181 261 q 1158 376 1181 325 q 1098 461 1135 426 q 1014 514 1061 496 q 917 532 967 532 q 821 514 868 532 q 736 462 774 496 q 676 377 699 428 q 653 261 653 326 q 676 149 653 199 q 736 64 699 99 q 821 10 774 29 q 917 -8 868 -8 q 1013 10 965 -8 q 1097 64 1060 29 q 1158 149 1135 99 q 1181 261 1181 199 m 743 261 q 760 374 743 326 q 803 451 778 421 q 860 495 829 481 q 917 510 890 510 q 976 495 946 510 q 1032 451 1007 481 q 1074 374 1057 421 q 1090 261 1090 326 q 1073 147 1090 193 q 1029 73 1056 101 q 973 32 1003 44 q 917 19 943 19 q 860 31 890 19 q 803 72 829 43 q 760 146 778 100 q 743 261 743 192 z "},"&":{"ha":878,"x_min":43,"x_max":833,"o":"m 700 0 l 833 0 l 699 185 q 752 263 732 214 q 772 358 772 311 q 763 432 772 399 q 740 497 754 465 l 699 497 q 731 358 731 426 q 715 277 731 314 q 674 218 699 240 l 424 558 q 482 599 454 578 q 531 646 510 619 q 563 705 551 672 q 575 782 575 738 q 560 868 575 829 q 519 934 544 907 q 459 976 493 961 q 388 990 425 990 q 297 976 338 990 q 229 935 257 961 q 187 875 201 910 q 172 801 172 840 q 190 710 172 750 q 236 631 208 669 l 294 551 q 221 502 264 531 q 138 434 178 474 q 71 342 99 394 q 43 221 43 289 q 58 140 43 179 q 104 69 74 100 q 178 18 135 38 q 279 -1 222 -1 q 386 10 338 -1 q 475 38 435 21 q 549 76 515 56 q 613 117 583 97 l 700 0 m 513 783 q 503 719 513 746 q 476 674 493 693 q 435 639 458 654 q 386 608 413 624 l 331 686 q 298 744 310 717 q 286 817 286 772 q 311 894 286 860 q 388 928 336 928 q 478 889 443 928 q 513 783 513 850 m 171 269 q 185 345 171 311 q 222 408 199 379 q 274 459 244 436 q 332 501 303 482 l 589 151 q 478 90 536 115 q 354 65 419 65 q 292 78 325 65 q 233 118 260 92 q 188 182 206 144 q 171 269 171 219 z "},"'":{"ha":242,"x_min":75,"x_max":174,"o":"m 75 961 q 80 922 75 950 q 92 857 85 893 q 108 781 100 821 q 125 704 117 740 q 142 781 133 740 q 157 858 150 821 q 169 922 164 894 q 174 961 174 950 q 158 996 174 985 q 124 1007 143 1007 q 90 996 106 1007 q 75 961 75 985 z "},"(":{"ha":292,"x_min":58,"x_max":249,"o":"m 128 468 q 133 588 128 522 q 153 724 139 653 q 190 870 167 794 q 249 1024 214 946 l 185 1057 q 86 746 114 897 q 58 468 58 594 q 67 326 58 403 q 93 171 76 250 q 133 16 110 92 q 185 -122 157 -60 l 247 -87 q 199 46 221 -28 q 161 194 176 119 q 137 341 146 269 q 128 468 128 413 z "},")":{"ha":292,"x_min":60,"x_max":250,"o":"m 250 468 q 222 746 250 594 q 124 1057 194 897 l 60 1024 q 118 870 94 946 q 156 724 142 794 q 175 588 169 653 q 181 468 181 522 q 172 341 181 413 q 147 194 163 269 q 110 46 132 119 q 61 -87 88 -28 l 124 -122 q 175 16 151 -60 q 215 171 199 92 q 241 326 232 250 q 250 468 250 403 z "},"*":{"ha":350,"x_min":51,"x_max":299,"o":"m 181 822 q 203 801 190 813 q 229 778 215 789 q 256 760 243 768 q 281 753 269 753 q 299 769 299 753 q 285 789 299 779 q 254 807 272 799 q 217 822 236 815 q 186 832 199 828 q 218 842 199 836 q 255 857 238 849 q 285 874 272 865 q 299 894 299 883 q 281 911 299 911 q 257 904 269 911 q 231 887 244 897 q 203 864 217 876 q 181 842 190 851 q 191 890 188 872 q 194 932 194 908 q 190 960 194 949 q 175 972 186 972 q 159 960 164 972 q 154 933 154 949 q 158 890 154 910 q 169 842 163 871 q 117 887 144 864 q 69 910 90 910 q 56 905 60 910 q 51 893 51 900 q 63 873 51 882 q 93 856 75 864 q 130 842 111 849 q 164 832 149 836 q 131 822 150 828 q 94 808 111 815 q 64 791 76 800 q 51 771 51 782 q 69 754 51 754 q 96 762 82 754 q 124 781 110 769 q 149 803 138 792 q 169 822 161 815 q 158 779 163 799 q 154 731 154 760 q 159 703 154 715 q 175 692 164 692 q 190 703 186 692 q 194 732 194 715 q 190 779 194 760 q 181 822 186 799 z "},"+":{"ha":715,"x_min":99,"x_max":621,"o":"m 307 394 l 99 394 l 99 325 l 307 325 l 307 117 l 411 117 l 411 325 l 621 325 l 621 394 l 411 394 l 411 604 l 307 604 l 307 394 z "},",":{"ha":271,"x_min":71,"x_max":222,"o":"m 138 90 q 126 56 133 81 q 108 -1 118 32 q 89 -69 99 -33 q 71 -136 79 -104 q 115 -82 92 -111 q 160 -27 139 -53 q 196 19 181 -1 q 217 49 211 40 q 222 68 222 63 q 205 99 222 88 q 172 111 188 111 q 138 90 149 111 z "},"-":{"ha":438,"x_min":71,"x_max":372,"o":"m 372 394 l 71 394 l 71 325 l 372 325 l 372 394 z "},".":{"ha":285,"x_min":81,"x_max":208,"o":"m 208 57 q 190 102 208 83 q 144 121 171 121 q 99 102 118 121 q 81 57 81 83 q 99 12 81 31 q 144 -7 118 -7 q 190 12 171 -7 q 208 57 208 31 z "},"/":{"ha":368,"x_min":7,"x_max":333,"o":"m 7 0 l 56 0 l 333 972 l 285 972 l 7 0 z "},":":{"ha":313,"x_min":94,"x_max":222,"o":"m 222 57 q 203 102 222 83 q 158 121 185 121 q 113 102 132 121 q 94 57 94 83 q 113 12 94 31 q 158 -7 132 -7 q 203 12 185 -7 q 222 57 222 31 m 222 524 q 203 569 222 550 q 158 588 185 588 q 113 569 132 588 q 94 524 94 550 q 113 478 94 497 q 158 460 132 460 q 203 478 185 460 q 222 524 222 497 z "},";":{"ha":319,"x_min":71,"x_max":222,"o":"m 222 524 q 203 569 222 550 q 158 588 185 588 q 113 569 132 588 q 94 524 94 550 q 113 478 94 497 q 158 460 132 460 q 203 478 185 460 q 222 524 222 497 m 138 90 q 126 56 133 81 q 108 -1 118 32 q 89 -69 99 -33 q 71 -136 79 -104 q 115 -82 92 -111 q 160 -27 139 -53 q 196 19 181 -1 q 217 49 211 40 q 222 68 222 63 q 205 99 222 88 q 172 111 188 111 q 138 90 149 111 z "},"<":{"ha":458,"x_min":69,"x_max":396,"o":"m 326 604 l 69 350 l 326 96 l 396 96 l 188 350 l 396 604 l 326 604 z "},"=":{"ha":444,"x_min":71,"x_max":379,"o":"m 379 485 l 71 485 l 71 415 l 379 415 l 379 485 m 379 297 l 71 297 l 71 228 l 379 228 l 379 297 z "},">":{"ha":479,"x_min":88,"x_max":414,"o":"m 157 96 l 414 350 l 157 604 l 88 604 l 296 350 l 88 96 l 157 96 z "},"?":{"ha":600,"x_min":68,"x_max":558,"o":"m 432 781 q 421 715 432 742 q 390 667 410 688 q 342 627 371 646 q 278 588 313 608 q 215 496 215 549 q 228 374 215 453 q 251 200 240 294 q 254 183 253 189 q 263 176 256 176 q 275 200 274 176 q 290 356 282 283 q 310 490 299 429 q 397 531 353 508 q 478 585 442 554 q 536 655 514 615 q 558 747 558 694 q 538 850 558 806 q 482 924 517 894 q 400 969 447 954 q 301 983 353 983 q 207 968 249 983 q 136 927 165 953 q 90 868 107 901 q 68 800 72 835 l 117 800 q 171 900 124 858 q 301 942 218 942 q 398 897 364 942 q 432 781 432 851 m 328 57 q 309 102 328 83 q 264 121 290 121 q 219 102 238 121 q 200 57 200 83 q 219 12 200 31 q 264 -7 238 -7 q 309 12 290 -7 q 328 57 328 31 z "},"@":{"ha":1078,"x_min":57,"x_max":1032,"o":"m 722 272 l 722 678 l 528 678 q 443 666 483 678 q 372 628 403 654 q 322 561 340 601 q 303 464 303 521 q 362 303 303 360 q 533 246 421 246 l 726 246 q 840 257 785 246 q 938 298 896 268 q 1006 379 981 328 q 1032 511 1032 431 q 997 683 1032 604 q 898 821 961 763 q 747 912 835 879 q 556 944 660 944 q 358 910 449 944 q 200 813 267 875 q 95 664 133 750 q 57 475 57 578 q 92 303 57 385 q 189 157 126 221 q 339 56 251 93 q 533 18 426 18 q 724 45 646 18 q 853 100 803 72 l 815 150 q 763 124 794 136 q 693 101 731 111 q 614 86 656 92 q 533 81 572 81 q 375 110 450 81 q 243 194 300 140 q 153 319 186 247 q 119 475 119 392 q 153 639 119 564 q 244 768 186 714 q 383 852 303 822 q 556 882 463 882 q 729 853 653 882 q 859 776 806 825 q 941 658 913 726 q 969 511 969 590 q 949 391 969 438 q 894 318 928 344 q 815 282 860 292 q 722 272 769 272 m 646 654 l 646 272 l 551 272 q 427 324 467 272 q 388 464 388 376 q 434 607 388 560 q 547 654 481 654 l 646 654 z "},"A":{"ha":939,"x_min":22,"x_max":925,"o":"m 467 1014 l 22 0 l 69 0 l 197 289 l 656 289 l 786 0 l 925 0 l 467 1014 m 426 801 l 632 331 l 217 331 l 426 801 z "},"B":{"ha":844,"x_min":83,"x_max":792,"o":"m 83 972 l 83 0 l 431 0 q 576 19 510 0 q 690 72 642 38 q 765 157 738 107 q 792 269 792 207 q 735 435 792 369 q 565 511 678 500 q 720 582 669 524 q 771 719 771 640 q 747 823 771 776 q 678 903 722 869 q 574 954 635 936 q 439 972 513 972 l 83 972 m 222 42 l 222 479 l 389 479 q 509 469 457 479 q 596 435 561 458 q 649 371 631 411 q 667 272 667 331 q 601 98 667 154 q 389 42 535 42 l 222 42 m 222 521 l 222 931 l 378 931 q 587 880 521 931 q 653 722 653 829 q 589 576 653 631 q 389 521 525 521 l 222 521 z "},"C":{"ha":924,"x_min":44,"x_max":900,"o":"m 200 483 q 222 653 200 572 q 289 794 244 733 q 399 892 333 856 q 550 928 464 928 q 649 916 603 928 q 735 886 696 904 q 805 847 774 868 q 860 806 836 825 l 893 840 q 832 889 867 864 q 751 935 797 914 q 647 969 706 956 q 513 983 588 983 q 310 940 397 983 q 164 827 224 897 q 74 667 104 757 q 44 483 44 578 q 74 295 44 385 q 165 138 104 206 q 315 29 225 69 q 524 -11 404 -11 q 650 1 593 -11 q 753 31 707 13 q 836 73 800 50 q 900 117 872 96 l 867 153 q 738 76 814 108 q 546 44 663 44 q 400 80 464 44 q 292 176 336 115 q 224 316 247 236 q 200 483 200 396 z "},"D":{"ha":917,"x_min":83,"x_max":867,"o":"m 867 486 q 837 678 867 589 q 753 832 807 767 q 622 935 699 897 q 451 972 546 972 l 83 972 l 83 0 l 451 0 q 621 37 544 0 q 752 138 697 74 q 837 292 807 203 q 867 486 867 382 m 222 42 l 222 931 l 438 931 q 567 894 513 931 q 656 797 621 858 q 707 656 690 736 q 724 486 724 575 q 707 317 724 397 q 656 175 690 236 q 567 78 621 114 q 438 42 513 42 l 222 42 z "},"E":{"ha":611,"x_min":85,"x_max":551,"o":"m 551 931 l 551 972 l 85 972 l 85 0 l 551 0 l 551 42 l 224 42 l 224 483 l 551 483 l 551 525 l 224 525 l 224 931 l 551 931 z "},"F":{"ha":604,"x_min":83,"x_max":551,"o":"m 551 931 l 551 972 l 83 972 l 83 0 l 224 0 l 224 483 l 551 483 l 551 525 l 224 525 l 224 931 l 551 931 z "},"G":{"ha":979,"x_min":49,"x_max":896,"o":"m 199 481 q 221 649 199 569 q 288 790 243 729 q 401 885 333 850 q 560 921 469 921 q 735 894 657 921 q 868 826 813 868 l 896 861 q 749 945 838 910 q 542 981 661 981 q 335 940 426 981 q 181 830 244 899 q 83 671 117 761 q 49 481 49 581 q 78 303 49 390 q 169 145 108 215 q 320 32 229 75 q 532 -11 411 -11 q 660 1 604 -11 q 760 33 717 14 q 838 74 804 51 q 896 117 871 97 l 896 458 l 486 458 l 486 417 l 757 417 l 757 97 q 687 63 735 81 q 560 44 639 44 q 402 82 469 44 q 290 181 335 119 q 222 320 244 242 q 199 481 199 399 z "},"H":{"ha":838,"x_min":88,"x_max":754,"o":"m 226 535 l 226 972 l 88 972 l 88 0 l 226 0 l 226 493 l 615 493 l 615 0 l 754 0 l 754 972 l 615 972 l 615 535 l 226 535 z "},"I":{"ha":297,"x_min":79,"x_max":218,"o":"m 79 0 l 218 0 l 218 972 l 79 972 l 79 0 z "},"J":{"ha":481,"x_min":47,"x_max":410,"o":"m 410 972 l 271 972 l 271 229 q 250 86 271 131 q 168 42 229 42 l 47 42 l 47 0 l 169 0 q 351 50 292 0 q 410 229 410 100 l 410 972 z "},"K":{"ha":764,"x_min":85,"x_max":718,"o":"m 224 561 l 224 972 l 85 972 l 85 0 l 224 0 l 224 506 l 249 531 l 558 0 l 718 0 l 344 628 l 689 972 l 633 972 l 224 561 z "},"L":{"ha":619,"x_min":83,"x_max":571,"o":"m 222 42 l 222 972 l 83 972 l 83 0 l 571 0 l 571 42 l 222 42 z "},"M":{"ha":1118,"x_min":83,"x_max":1035,"o":"m 83 972 l 83 0 l 126 0 l 126 831 l 522 -19 l 896 831 l 896 0 l 1035 0 l 1035 972 l 913 972 l 578 224 l 231 972 l 83 972 z "},"N":{"ha":854,"x_min":83,"x_max":772,"o":"m 83 972 l 83 0 l 125 0 l 125 811 l 772 -19 l 772 972 l 731 972 l 731 263 l 174 972 l 83 972 z "},"O":{"ha":1069,"x_min":47,"x_max":1022,"o":"m 1022 486 q 991 670 1022 581 q 898 830 960 760 q 745 943 836 900 q 535 986 654 986 q 324 943 415 986 q 171 830 232 900 q 78 670 110 760 q 47 486 47 581 q 78 301 47 392 q 171 138 110 210 q 324 23 232 67 q 535 -21 415 -21 q 745 23 654 -21 q 898 138 836 67 q 991 301 960 210 q 1022 486 1022 392 m 192 486 q 213 656 192 574 q 276 802 233 738 q 384 906 319 867 q 535 944 449 944 q 685 906 621 944 q 792 802 750 867 q 856 656 835 738 q 878 486 878 574 q 856 317 878 399 q 792 170 835 235 q 685 67 750 106 q 535 28 621 28 q 384 67 449 28 q 276 170 319 106 q 213 317 233 235 q 192 486 192 399 z "},"P":{"ha":708,"x_min":83,"x_max":674,"o":"m 674 729 q 653 826 674 781 q 597 903 633 871 q 508 953 560 935 q 393 972 457 972 l 83 972 l 83 0 l 222 0 l 222 486 l 393 486 q 508 505 457 486 q 597 556 560 524 q 653 632 633 588 q 674 729 674 676 m 547 729 q 501 585 547 642 q 368 528 456 528 l 222 528 l 222 931 l 368 931 q 501 874 454 931 q 547 729 547 817 z "},"Q":{"ha":1069,"x_min":47,"x_max":1022,"o":"m 47 486 q 78 300 47 392 q 171 137 110 208 q 323 22 232 65 q 533 -21 414 -21 l 601 -125 l 739 -125 l 660 -6 q 817 65 749 15 q 931 181 885 114 q 999 326 976 247 q 1022 486 1022 406 q 991 670 1022 581 q 898 830 960 760 q 745 943 836 900 q 535 986 654 986 q 324 943 415 986 q 171 830 232 900 q 78 670 110 760 q 47 486 47 581 m 878 486 q 863 340 878 411 q 816 210 847 269 q 738 106 785 150 q 629 42 692 61 l 568 132 l 432 132 l 500 29 q 365 79 422 38 q 268 184 307 121 q 210 326 229 247 q 192 486 192 404 q 213 656 192 574 q 276 802 233 738 q 384 906 319 867 q 535 944 449 944 q 685 906 621 944 q 792 802 750 867 q 856 656 835 738 q 878 486 878 574 z "},"R":{"ha":767,"x_min":83,"x_max":715,"o":"m 222 0 l 222 931 l 363 931 q 464 913 421 931 q 535 865 507 894 q 578 798 564 835 q 592 724 592 761 q 541 574 592 632 q 393 517 490 517 l 250 517 l 549 0 l 710 0 l 415 483 q 553 502 496 483 q 646 553 610 521 q 699 630 682 586 q 715 724 715 674 q 696 814 715 769 q 639 894 676 858 q 547 951 601 929 q 422 972 492 972 l 83 972 l 83 0 l 222 0 z "},"S":{"ha":653,"x_min":50,"x_max":626,"o":"m 528 815 l 574 835 q 542 885 561 860 q 494 931 522 911 q 427 965 467 951 q 335 978 388 978 q 226 960 276 978 q 138 910 175 942 q 78 833 100 878 q 57 733 57 788 q 70 647 57 689 q 113 569 83 606 q 190 501 142 532 q 308 447 238 469 q 455 356 410 414 q 500 225 500 299 q 455 87 500 140 q 310 33 410 33 q 236 47 271 33 q 174 85 201 61 q 126 140 146 108 q 97 210 106 172 l 50 197 q 82 122 61 158 q 136 56 103 85 q 218 9 169 26 q 335 -8 267 -8 q 458 15 404 -8 q 550 76 513 38 q 607 167 588 115 q 626 275 626 218 q 607 381 626 331 q 553 472 588 431 q 469 544 518 513 q 361 594 419 575 q 215 666 258 628 q 171 768 171 704 q 183 832 171 801 q 219 885 196 863 q 274 922 242 908 q 346 936 306 936 q 460 899 413 936 q 528 815 507 863 z "},"T":{"ha":563,"x_min":47,"x_max":519,"o":"m 519 972 l 47 972 l 47 931 l 214 931 l 214 0 l 353 0 l 353 931 l 519 931 l 519 972 z "},"U":{"ha":731,"x_min":85,"x_max":647,"o":"m 224 242 l 224 972 l 85 972 l 85 254 q 109 138 85 188 q 175 54 133 88 q 272 5 217 21 q 390 -11 328 -11 q 491 5 444 -11 q 572 53 538 21 q 627 134 607 86 q 647 247 647 182 l 647 972 l 606 972 l 606 246 q 589 158 606 196 q 545 95 572 121 q 483 57 518 69 q 413 44 449 44 q 276 95 329 44 q 224 242 224 146 z "},"V":{"ha":689,"x_min":38,"x_max":663,"o":"m 182 972 l 38 972 l 350 -17 l 663 972 l 618 972 l 399 282 l 182 972 z "},"W":{"ha":1090,"x_min":28,"x_max":1079,"o":"m 560 972 l 415 972 l 533 629 l 410 268 l 169 972 l 28 972 l 357 -17 l 553 569 l 746 -17 l 1079 972 l 1039 972 l 796 271 l 560 972 z "},"X":{"ha":896,"x_min":32,"x_max":858,"o":"m 197 972 l 33 972 l 383 454 l 32 0 l 93 0 l 415 408 l 688 0 l 854 0 l 506 515 l 858 972 l 800 972 l 475 563 l 197 972 z "},"Y":{"ha":750,"x_min":19,"x_max":728,"o":"m 179 971 l 19 971 l 301 485 l 301 0 l 443 0 l 443 493 l 728 972 l 676 972 l 425 547 l 179 971 z "},"Z":{"ha":840,"x_min":47,"x_max":794,"o":"m 794 972 l 81 972 l 81 931 l 608 931 l 47 0 l 781 0 l 781 42 l 233 42 l 794 972 z "},"[":{"ha":368,"x_min":83,"x_max":285,"o":"m 281 994 l 281 1042 l 83 1042 l 83 -104 l 285 -104 l 285 -58 l 189 -58 l 189 994 l 281 994 z "},"\\":{"ha":431,"x_min":33,"x_max":415,"o":"m 82 972 l 33 972 l 367 0 l 415 0 l 82 972 z "},"]":{"ha":368,"x_min":90,"x_max":292,"o":"m 292 -104 l 292 1042 l 94 1042 l 94 994 l 186 994 l 186 -58 l 90 -58 l 90 -104 l 292 -104 z "},"^":{"ha":479,"x_min":69,"x_max":417,"o":"m 222 951 l 69 632 l 103 632 l 243 885 l 382 632 l 417 632 l 264 951 l 222 951 z "},"_":{"ha":403,"x_min":0,"x_max":419,"o":"m 419 -22 l 0 -22 l 0 -64 l 419 -64 l 419 -22 z "},"`":{"ha":306,"x_min":69,"x_max":257,"o":"m 257 754 l 146 892 q 101 918 126 918 q 79 910 89 918 q 69 890 69 903 q 75 871 69 881 q 96 851 81 861 l 257 754 z "},"a":{"ha":597,"x_min":14,"x_max":585,"o":"m 222 639 l 14 0 l 61 0 l 114 161 l 414 161 l 467 0 l 585 0 l 369 639 q 341 690 358 671 q 294 708 324 708 q 250 690 267 708 q 222 639 233 671 m 296 528 l 396 203 l 128 203 l 233 531 q 247 559 240 549 q 265 569 254 569 q 283 558 276 569 q 296 528 289 547 z "},"b":{"ha":778,"x_min":69,"x_max":740,"o":"m 194 681 l 194 1039 l 69 1039 l 69 0 l 361 0 q 527 30 456 0 q 646 108 599 60 q 717 217 693 156 q 740 339 740 278 q 717 467 740 406 q 647 576 693 528 q 533 652 601 624 q 374 681 464 681 l 194 681 m 610 339 q 594 227 610 281 q 549 133 579 174 q 473 67 518 92 q 368 42 428 42 l 194 42 l 194 639 l 375 639 q 477 613 433 639 q 551 545 521 588 q 595 449 581 503 q 610 339 610 394 z "},"c":{"ha":674,"x_min":39,"x_max":647,"o":"m 167 336 q 185 476 167 417 q 235 575 203 536 q 311 633 268 614 q 404 651 354 651 q 476 643 444 651 q 532 622 507 635 q 577 592 557 608 q 615 557 597 575 l 644 586 q 609 623 629 604 q 560 658 589 642 q 494 683 532 674 q 406 693 456 693 q 270 671 336 693 q 153 604 204 649 q 70 492 101 560 q 39 336 39 425 q 71 179 39 246 q 153 68 103 113 q 269 1 204 24 q 400 -21 333 -21 q 491 -11 451 -21 q 560 13 531 -1 q 610 44 589 28 q 647 76 632 61 l 617 104 q 581 77 600 92 q 538 50 563 63 q 479 29 513 38 q 400 21 446 21 q 228 99 289 21 q 167 336 167 178 z "},"d":{"ha":783,"x_min":42,"x_max":711,"o":"m 711 0 l 711 1039 l 586 1039 l 586 681 l 419 681 q 254 651 325 681 q 136 572 183 621 q 65 463 89 524 q 42 340 42 401 q 65 213 42 274 q 135 104 89 151 q 253 28 182 57 q 419 0 324 0 l 711 0 m 586 639 l 586 42 l 413 42 q 308 65 353 42 q 234 127 264 88 q 189 222 204 167 q 174 340 174 276 q 188 456 174 401 q 231 551 203 510 q 303 615 260 592 q 406 639 347 639 l 586 639 z "},"e":{"ha":556,"x_min":69,"x_max":494,"o":"m 494 639 l 494 681 l 174 681 q 97 652 125 681 q 69 578 69 624 l 69 104 q 94 28 69 57 q 171 0 118 0 l 494 0 l 494 42 l 268 42 q 211 60 228 42 q 194 110 194 78 l 194 336 l 451 336 l 451 378 l 194 378 l 194 576 q 210 622 194 604 q 261 639 226 639 l 494 639 z "},"f":{"ha":396,"x_min":76,"x_max":339,"o":"m 331 1007 l 331 1047 q 208 1038 257 1047 q 131 1010 160 1028 q 89 968 101 992 q 76 915 76 944 l 76 0 l 201 0 l 201 639 l 339 639 l 339 681 l 201 681 l 201 932 q 213 972 201 957 q 242 994 224 986 q 284 1005 261 1003 q 331 1007 307 1007 z "},"g":{"ha":792,"x_min":51,"x_max":728,"o":"m 413 -21 q 525 -6 479 -21 q 603 29 571 10 l 603 -261 l 728 -261 l 728 322 l 603 322 l 603 83 q 530 40 574 60 q 413 21 486 21 q 240 99 301 21 q 179 336 179 178 q 197 476 179 417 q 248 575 215 536 q 324 633 281 614 q 417 651 367 651 q 488 643 457 651 q 544 622 519 635 q 590 592 569 608 q 628 557 610 575 l 657 586 q 622 623 642 604 q 573 658 601 642 q 506 683 544 674 q 418 693 468 693 q 283 671 349 693 q 165 604 217 649 q 83 492 114 560 q 51 336 51 425 q 83 179 51 246 q 166 68 115 113 q 281 1 217 24 q 413 -21 346 -21 z "},"h":{"ha":750,"x_min":71,"x_max":681,"o":"m 196 410 l 196 1042 l 71 1042 l 71 0 l 196 0 l 196 368 l 556 368 l 556 0 l 681 0 l 681 681 l 556 681 l 556 410 l 196 410 z "},"i":{"ha":278,"x_min":75,"x_max":203,"o":"m 201 681 l 76 681 l 76 0 l 201 0 l 201 681 m 203 815 q 184 860 203 842 q 139 879 165 879 q 94 860 113 879 q 75 815 75 842 q 94 770 75 789 q 139 751 113 751 q 184 770 165 751 q 203 815 203 789 z "},"j":{"ha":390,"x_min":13,"x_max":321,"o":"m 319 681 l 194 681 l 194 -56 q 189 -130 194 -100 q 172 -177 183 -160 q 140 -201 160 -194 q 92 -208 121 -208 l 13 -208 l 13 -250 l 93 -250 q 201 -237 157 -250 q 271 -198 244 -225 q 308 -127 297 -171 q 319 -21 319 -83 l 319 681 m 321 815 q 302 860 321 842 q 257 879 283 879 q 212 860 231 879 q 193 815 193 842 q 212 770 193 789 q 257 751 231 751 q 302 770 283 751 q 321 815 321 789 z "},"k":{"ha":688,"x_min":69,"x_max":658,"o":"m 194 422 l 194 1042 l 69 1042 l 69 0 l 194 0 l 194 358 l 217 381 l 503 0 l 658 0 l 306 467 l 522 681 l 454 681 l 194 422 z "},"l":{"ha":382,"x_min":69,"x_max":347,"o":"m 69 117 q 101 31 69 61 q 181 0 132 0 l 347 0 l 347 42 l 272 42 q 194 118 194 42 l 194 1042 l 69 1042 l 69 117 z "},"m":{"ha":911,"x_min":69,"x_max":849,"o":"m 674 632 l 451 176 l 240 632 q 203 678 226 663 q 142 693 179 693 q 88 668 106 693 q 69 611 69 643 l 69 0 l 111 0 l 111 489 q 115 522 111 508 q 132 535 118 535 q 150 525 143 535 q 165 496 157 515 l 407 -22 l 663 504 q 679 531 669 519 q 703 543 689 543 q 721 530 718 543 q 724 497 724 517 l 724 0 l 849 0 l 849 611 q 826 672 849 649 q 765 694 803 694 q 708 676 729 694 q 674 632 686 658 z "},"n":{"ha":636,"x_min":69,"x_max":567,"o":"m 69 596 l 69 0 l 111 0 l 111 511 q 115 533 111 524 q 128 542 118 542 q 144 534 139 542 q 161 511 150 526 l 500 31 q 517 9 510 18 q 540 0 525 0 q 562 10 557 0 q 567 36 567 21 l 567 681 l 526 681 l 526 256 q 524 238 526 244 q 515 231 522 231 q 503 238 508 231 q 493 253 499 246 l 224 642 q 191 677 208 663 q 136 692 174 692 q 85 666 101 692 q 69 596 69 640 z "},"o":{"ha":799,"x_min":38,"x_max":774,"o":"m 774 342 q 751 472 774 408 q 682 588 728 536 q 567 670 636 639 q 404 701 497 701 q 244 671 313 701 q 129 590 175 640 q 60 475 83 540 q 38 342 38 410 q 60 210 38 275 q 128 94 82 146 q 242 12 174 43 q 404 -19 311 -19 q 565 11 496 -19 q 681 92 635 42 q 751 207 728 142 q 774 342 774 272 m 161 342 q 176 462 161 404 q 221 563 190 519 q 297 633 251 607 q 404 660 343 660 q 511 633 465 660 q 588 561 557 606 q 635 460 619 517 q 650 342 650 403 q 635 221 650 279 q 589 119 619 163 q 512 49 558 75 q 404 22 465 22 q 297 50 343 22 q 222 123 251 78 q 176 225 192 168 q 161 342 161 282 z "},"p":{"ha":778,"x_min":69,"x_max":740,"o":"m 69 681 l 69 -275 l 194 -275 l 194 0 l 361 0 q 527 30 456 0 q 646 108 599 60 q 717 216 693 156 q 740 338 740 276 q 717 466 740 404 q 646 576 693 528 q 528 652 599 624 q 361 681 457 681 l 69 681 m 194 42 l 194 639 l 368 639 q 472 617 428 639 q 547 554 517 594 q 593 459 578 514 q 608 338 608 404 q 594 222 608 276 q 550 128 579 168 q 477 65 521 88 q 375 42 433 42 l 194 42 z "},"q":{"ha":813,"x_min":38,"x_max":774,"o":"m 38 342 q 58 214 38 276 q 122 101 79 151 q 228 18 164 51 q 379 -19 293 -15 l 474 -200 l 597 -200 l 497 -10 q 619 39 567 4 q 705 121 671 74 q 756 225 739 168 q 774 342 774 282 q 751 472 774 408 q 682 588 728 536 q 567 670 636 639 q 404 701 497 701 q 244 671 313 701 q 129 590 175 640 q 60 475 83 540 q 38 342 38 410 m 317 99 l 354 28 q 269 70 306 39 q 209 144 233 101 q 173 238 185 186 q 161 342 161 289 q 176 462 161 404 q 221 563 190 519 q 297 633 251 607 q 404 660 343 660 q 511 633 465 660 q 588 561 557 606 q 635 460 619 517 q 650 342 650 403 q 639 238 650 288 q 606 147 628 189 q 551 76 585 106 q 475 32 518 46 l 440 99 l 317 99 z "},"r":{"ha":660,"x_min":69,"x_max":615,"o":"m 194 0 l 194 639 l 325 639 q 395 626 365 639 q 445 593 425 614 q 475 546 465 572 q 485 492 485 519 q 451 388 485 431 q 347 344 417 344 l 222 344 l 464 0 l 615 0 l 397 311 q 483 325 446 311 q 546 364 521 339 q 584 422 571 389 q 597 492 597 454 q 584 556 597 522 q 543 617 571 590 q 473 663 515 644 q 371 681 431 681 l 69 681 l 69 0 l 194 0 z "},"s":{"ha":583,"x_min":57,"x_max":539,"o":"m 494 636 l 494 681 l 271 681 q 112 632 167 681 q 57 481 57 583 q 76 397 57 432 q 127 340 96 363 q 197 306 158 317 q 274 294 235 294 q 401 266 364 294 q 439 183 439 238 q 432 130 439 154 q 407 88 425 106 q 358 60 389 71 q 278 50 326 50 l 72 50 l 72 0 l 294 0 q 412 13 365 0 q 487 51 458 25 q 527 117 515 78 q 539 210 539 156 q 524 284 539 249 q 480 347 510 319 q 403 392 450 375 q 289 408 356 408 q 194 433 231 408 q 157 521 157 458 q 189 606 157 576 q 288 636 221 636 l 494 636 z "},"t":{"ha":563,"x_min":47,"x_max":519,"o":"m 519 681 l 47 681 l 47 639 l 221 639 l 221 0 l 346 0 l 346 639 l 519 639 l 519 681 z "},"u":{"ha":626,"x_min":71,"x_max":557,"o":"m 210 221 l 210 681 l 71 681 l 71 242 q 140 53 71 115 q 338 -10 210 -10 q 499 53 440 -10 q 557 247 557 117 l 557 681 l 515 681 l 515 232 q 470 88 515 136 q 357 39 425 39 q 242 90 275 39 q 210 221 210 142 z "},"v":{"ha":689,"x_min":38,"x_max":663,"o":"m 174 681 l 38 681 l 308 42 q 327 7 318 19 q 356 -6 336 -6 q 385 7 376 -6 q 403 42 394 19 l 663 681 l 614 681 l 422 208 q 414 195 419 201 q 399 189 408 189 q 375 207 382 189 l 174 681 z "},"w":{"ha":1021,"x_min":38,"x_max":989,"o":"m 356 -6 q 384 6 375 -6 q 400 33 393 18 l 518 321 l 642 32 q 658 6 649 17 q 685 -6 668 -6 q 712 6 704 -6 q 726 32 719 17 l 989 681 l 947 681 l 749 208 q 725 189 742 189 q 711 194 718 189 q 701 207 704 199 l 503 681 l 364 681 l 490 386 l 422 208 q 397 189 414 189 q 375 207 382 189 l 174 681 l 38 681 l 313 32 q 328 6 319 18 q 356 -6 336 -6 z "},"x":{"ha":667,"x_min":26,"x_max":653,"o":"m 179 681 l 26 681 l 289 303 l 54 0 l 103 0 l 313 271 l 501 0 l 653 0 l 396 369 l 636 681 l 589 681 l 372 401 l 179 681 z "},"y":{"ha":750,"x_min":31,"x_max":735,"o":"m 171 681 l 31 681 l 378 28 l 247 -250 l 289 -250 l 735 681 l 690 681 l 444 165 l 171 681 z "},"z":{"ha":590,"x_min":28,"x_max":549,"o":"m 63 681 l 63 639 l 326 639 q 365 628 353 639 q 376 600 376 617 q 373 581 376 590 q 364 563 369 572 l 28 0 l 549 0 l 549 42 l 271 42 q 226 75 226 42 q 236 104 226 88 l 506 556 q 528 592 517 575 q 539 628 539 610 q 457 681 539 681 l 63 681 z "},"{":{"ha":333,"x_min":50,"x_max":279,"o":"m 182 592 l 182 911 q 201 983 182 958 q 279 1008 221 1008 l 279 1053 q 190 1042 224 1053 q 140 1011 157 1032 q 117 959 122 990 q 111 886 111 928 l 111 592 q 93 524 111 551 q 50 469 75 497 q 92 415 74 446 q 111 347 111 383 l 111 32 q 117 -37 111 -7 q 140 -87 122 -67 q 190 -117 157 -107 q 279 -128 224 -128 l 279 -83 q 201 -58 221 -83 q 182 14 182 -33 l 182 347 q 165 415 182 385 q 126 469 147 446 q 165 519 149 493 q 182 592 182 546 z "},"|":{"ha":174,"x_min":68,"x_max":117,"o":"m 117 972 l 68 972 l 68 0 l 117 0 l 117 972 z "},"}":{"ha":333,"x_min":74,"x_max":303,"o":"m 74 1008 q 151 983 132 1008 q 171 911 171 958 l 171 592 q 188 519 171 546 q 226 469 204 493 q 188 415 206 446 q 171 347 171 385 l 171 14 q 151 -58 171 -33 q 74 -83 132 -83 l 74 -128 q 162 -117 129 -128 q 213 -87 194 -107 q 236 -37 231 -67 q 242 32 242 -7 l 242 347 q 260 415 242 383 q 303 469 279 446 q 260 524 278 497 q 242 592 242 551 l 242 886 q 236 959 242 928 q 213 1011 231 990 q 162 1042 194 1032 q 74 1053 129 1053 l 74 1008 z "},"~":{"ha":549,"x_min":44,"x_max":513,"o":"m 44 554 l 83 517 q 124 547 100 532 q 197 563 149 563 q 238 553 221 563 q 272 533 256 544 q 314 509 292 521 q 372 497 336 497 q 456 517 424 497 q 513 561 489 536 l 476 594 q 435 564 458 575 q 369 553 411 553 q 328 563 347 553 q 289 586 308 574 q 248 607 269 597 q 197 617 226 617 q 105 597 140 617 q 44 554 69 576 z "},"‚":{"ha":326,"x_min":103,"x_max":253,"o":"m 169 190 q 158 156 165 181 q 140 99 150 132 q 121 31 131 67 q 103 -36 111 -4 q 147 18 124 -11 q 191 73 171 47 q 226 119 211 99 q 247 149 242 140 q 251 160 250 154 q 253 175 253 165 q 240 201 253 190 q 210 211 228 211 q 169 190 181 211 z "},"ƒ":{"ha":772,"x_min":68,"x_max":710,"o":"m 710 642 l 68 642 l 68 0 l 710 0 l 710 642 z "},"„":{"ha":472,"x_min":103,"x_max":418,"o":"m 335 190 q 323 156 331 181 q 306 99 315 132 q 286 31 296 67 q 268 -36 276 -4 q 313 18 289 -11 q 356 73 336 47 q 392 119 376 99 q 413 149 407 140 q 417 160 415 154 q 418 175 418 165 q 406 201 418 190 q 375 211 393 211 q 335 190 346 211 m 169 190 q 158 156 165 181 q 140 99 150 132 q 121 31 131 67 q 103 -36 111 -4 q 147 18 124 -11 q 191 73 171 47 q 226 119 211 99 q 247 149 242 140 q 251 160 250 154 q 253 175 253 165 q 240 201 253 190 q 210 211 228 211 q 169 190 181 211 z "},"…":{"ha":792,"x_min":92,"x_max":700,"o":"m 219 57 q 201 102 219 83 q 156 121 182 121 q 110 102 129 121 q 92 57 92 83 q 110 12 92 31 q 156 -7 129 -7 q 201 12 182 -7 q 219 57 219 31 m 460 57 q 441 102 460 83 q 396 121 422 121 q 351 102 369 121 q 332 57 332 83 q 351 12 332 31 q 396 -7 369 -7 q 441 12 422 -7 q 460 57 460 31 m 700 57 q 681 102 700 83 q 636 121 663 121 q 591 102 610 121 q 572 57 572 83 q 591 12 572 31 q 636 -7 610 -7 q 681 12 663 -7 q 700 57 700 31 z "},"†":{"ha":340,"x_min":68,"x_max":293,"o":"m 161 264 l 200 264 l 200 747 l 293 747 l 293 786 l 200 786 l 200 1022 l 161 1022 l 161 786 l 68 786 l 68 747 l 161 747 l 161 264 z "},"‡":{"ha":340,"x_min":68,"x_max":293,"o":"m 161 139 l 200 139 l 200 554 l 293 554 l 293 593 l 200 593 l 200 783 l 293 783 l 293 821 l 200 821 l 200 1022 l 161 1022 l 161 821 l 68 821 l 68 783 l 161 783 l 161 593 l 68 593 l 68 554 l 161 554 l 161 139 z "},"ˆ":{"ha":479,"x_min":69,"x_max":417,"o":"m 222 896 l 69 736 l 103 736 l 243 835 l 382 736 l 417 736 l 264 896 l 222 896 z "},"‰":{"ha":1792,"x_min":64,"x_max":1764,"o":"m 592 722 q 569 837 592 786 q 509 922 546 888 q 425 975 472 957 q 328 993 378 993 q 232 975 279 993 q 147 923 185 957 q 87 838 110 889 q 64 722 64 788 q 87 610 64 660 q 147 525 110 560 q 232 472 185 490 q 328 453 279 453 q 424 472 376 453 q 508 525 471 490 q 569 610 546 560 q 592 722 592 660 m 154 722 q 172 835 154 788 q 215 912 189 882 q 271 956 240 942 q 328 971 301 971 q 388 956 357 971 q 443 912 418 942 q 485 835 468 882 q 501 722 501 788 q 484 608 501 654 q 440 534 467 563 q 384 493 414 506 q 328 481 354 481 q 271 492 301 481 q 215 533 240 504 q 172 607 189 561 q 154 722 154 653 m 278 0 l 340 0 l 940 972 l 878 972 l 278 0 m 1169 261 q 1147 376 1169 325 q 1087 461 1124 426 q 1003 514 1050 496 q 906 532 956 532 q 810 514 857 532 q 725 462 763 496 q 665 377 688 428 q 642 261 642 326 q 665 149 642 199 q 725 64 688 99 q 810 10 763 29 q 906 -8 857 -8 q 1001 10 954 -8 q 1086 64 1049 29 q 1147 149 1124 99 q 1169 261 1169 199 m 732 261 q 749 374 732 326 q 792 451 767 421 q 849 495 818 481 q 906 510 879 510 q 965 495 935 510 q 1021 451 996 481 q 1063 374 1046 421 q 1079 261 1079 326 q 1062 147 1079 193 q 1018 73 1044 101 q 962 32 992 44 q 906 19 932 19 q 849 31 879 19 q 792 72 818 43 q 749 146 767 100 q 732 261 732 192 m 1764 261 q 1741 376 1764 325 q 1681 461 1718 426 q 1597 514 1644 496 q 1500 532 1550 532 q 1404 514 1451 532 q 1319 462 1357 496 q 1259 377 1282 428 q 1236 261 1236 326 q 1259 149 1236 199 q 1319 64 1282 99 q 1404 10 1357 29 q 1500 -8 1451 -8 q 1596 10 1549 -8 q 1681 64 1643 29 q 1741 149 1718 99 q 1764 261 1764 199 m 1326 261 q 1344 374 1326 326 q 1387 451 1361 421 q 1443 495 1413 481 q 1500 510 1474 510 q 1560 495 1529 510 q 1615 451 1590 481 q 1657 374 1640 421 q 1674 261 1674 326 q 1656 147 1674 193 q 1613 73 1639 101 q 1556 32 1586 44 q 1500 19 1526 19 q 1443 31 1474 19 q 1387 72 1413 43 q 1344 146 1361 100 q 1326 261 1326 192 z "},"Š":{"ha":653,"x_min":50,"x_max":626,"o":"m 528 815 l 574 835 q 542 885 561 860 q 494 931 522 911 q 427 965 467 951 q 335 978 388 978 q 226 960 276 978 q 138 910 175 942 q 78 833 100 878 q 57 733 57 788 q 70 647 57 689 q 113 569 83 606 q 190 501 142 532 q 308 447 238 469 q 455 356 410 414 q 500 225 500 299 q 455 87 500 140 q 310 33 410 33 q 236 47 271 33 q 174 85 201 61 q 126 140 146 108 q 97 210 106 172 l 50 197 q 82 122 61 158 q 136 56 103 85 q 218 9 169 26 q 335 -8 267 -8 q 458 15 404 -8 q 550 76 513 38 q 607 167 588 115 q 626 275 626 218 q 607 381 626 331 q 553 472 588 431 q 469 544 518 513 q 361 594 419 575 q 215 666 258 628 q 171 768 171 704 q 183 832 171 801 q 219 885 196 863 q 274 922 242 908 q 346 936 306 936 q 460 899 413 936 q 528 815 507 863 m 356 1014 l 508 1174 l 475 1174 l 335 1075 l 196 1174 l 161 1174 l 314 1014 l 356 1014 z "},"‹":{"ha":417,"x_min":49,"x_max":347,"o":"m 278 604 l 49 347 l 278 97 l 347 97 l 181 347 l 347 604 l 278 604 z "},"Œ":{"ha":1410,"x_min":46,"x_max":1367,"o":"m 533 940 q 691 900 625 940 q 799 795 757 860 q 862 649 842 731 q 882 483 882 567 q 859 318 882 400 q 792 172 836 236 q 683 67 747 107 q 533 26 618 26 q 391 62 454 26 q 283 159 328 97 q 215 304 239 221 q 190 483 190 388 q 210 649 190 567 q 270 795 229 731 q 376 900 311 860 q 533 940 442 940 m 46 483 q 83 270 46 364 q 187 111 121 176 q 342 12 253 46 q 533 -22 431 -22 q 648 -10 594 -22 q 744 19 701 3 q 817 55 788 36 q 863 86 847 74 q 881 43 868 60 q 912 17 894 26 q 949 3 929 7 q 989 0 969 0 l 1367 0 l 1367 42 l 1125 42 q 1063 60 1088 42 q 1038 119 1038 79 l 1038 483 l 1363 483 l 1363 525 l 1038 525 l 1038 879 q 1094 931 1038 931 l 1367 931 l 1367 972 l 1008 972 q 951 963 975 972 q 908 940 926 954 q 879 908 890 925 q 863 872 868 890 q 826 904 851 885 q 760 941 801 924 q 663 971 719 958 q 533 983 607 983 q 331 943 421 983 q 177 835 240 903 q 80 676 114 767 q 46 483 46 585 z "},"‘":{"ha":292,"x_min":65,"x_max":215,"o":"m 71 926 q 92 897 76 918 q 127 851 107 876 q 171 796 147 825 q 215 742 194 767 q 197 809 207 774 q 178 877 188 844 q 160 934 168 910 q 149 968 153 958 q 108 989 138 989 q 78 978 90 989 q 65 953 65 968 q 67 938 65 943 q 71 926 68 932 z "},"’":{"ha":292,"x_min":81,"x_max":231,"o":"m 147 968 q 135 934 143 958 q 118 877 128 910 q 99 809 108 844 q 81 742 89 774 q 125 796 101 767 q 169 851 149 825 q 204 897 189 876 q 225 926 219 918 q 229 938 228 932 q 231 953 231 943 q 218 978 231 968 q 188 989 206 989 q 147 968 158 989 z "},"“":{"ha":472,"x_min":65,"x_max":381,"o":"m 71 926 q 92 897 76 918 q 127 851 107 876 q 171 796 147 825 q 215 742 194 767 q 197 809 207 774 q 178 877 188 844 q 160 934 168 910 q 149 968 153 958 q 108 989 138 989 q 78 978 90 989 q 65 953 65 968 q 67 938 65 943 q 71 926 68 932 m 236 926 q 257 897 242 918 q 292 851 272 876 q 336 796 313 825 q 381 742 360 767 q 363 809 372 774 q 343 877 353 844 q 326 934 333 910 q 314 968 318 958 q 274 989 303 989 q 243 978 256 989 q 231 953 231 968 q 232 938 231 943 q 236 926 233 932 z "},"”":{"ha":472,"x_min":103,"x_max":418,"o":"m 335 968 q 323 934 331 958 q 306 877 315 910 q 286 809 296 844 q 268 742 276 774 q 313 796 289 767 q 356 851 336 825 q 392 897 376 876 q 413 926 407 918 q 417 938 415 932 q 418 953 418 943 q 406 978 418 968 q 375 989 393 989 q 335 968 346 989 m 169 968 q 158 934 165 958 q 140 877 150 910 q 121 809 131 844 q 103 742 111 774 q 147 796 124 767 q 191 851 171 825 q 226 897 211 876 q 247 926 242 918 q 251 938 250 932 q 253 953 253 943 q 240 978 253 968 q 210 989 228 989 q 169 968 181 989 z "},"•":{"ha":493,"x_min":44,"x_max":453,"o":"m 453 389 q 437 468 453 431 q 393 533 421 506 q 328 577 365 561 q 249 593 290 593 q 169 577 207 593 q 104 533 132 561 q 60 468 76 506 q 44 389 44 431 q 60 310 44 347 q 104 244 76 272 q 169 201 132 217 q 249 185 207 185 q 328 201 290 185 q 393 244 365 217 q 437 310 421 272 q 453 389 453 347 z "},"–":{"ha":521,"x_min":71,"x_max":456,"o":"m 456 394 l 71 394 l 71 325 l 456 325 l 456 394 z "},"—":{"ha":861,"x_min":71,"x_max":801,"o":"m 801 394 l 71 394 l 71 339 l 801 339 l 801 394 z "},"˜":{"ha":569,"x_min":81,"x_max":501,"o":"m 81 796 l 115 763 q 152 790 131 775 q 218 804 174 804 q 254 797 239 804 q 285 778 269 789 q 323 756 303 767 q 375 744 343 744 q 450 762 421 744 q 501 803 479 779 l 469 832 q 431 805 453 815 q 372 794 410 794 q 335 804 353 794 q 300 825 318 814 q 264 844 283 836 q 218 853 244 853 q 134 834 165 853 q 81 796 103 815 z "},"™":{"ha":681,"x_min":86,"x_max":621,"o":"m 294 908 l 86 908 l 86 886 l 179 886 l 179 613 l 201 613 l 201 886 l 294 886 l 294 908 m 369 910 l 304 615 l 326 615 l 374 838 l 463 600 l 554 839 l 597 615 l 621 615 l 560 910 l 463 656 l 369 910 z "},"š":{"ha":583,"x_min":57,"x_max":539,"o":"m 494 636 l 494 681 l 271 681 q 112 632 167 681 q 57 481 57 583 q 76 397 57 432 q 127 340 96 363 q 197 306 158 317 q 274 294 235 294 q 401 266 364 294 q 439 183 439 238 q 432 130 439 154 q 407 88 425 106 q 358 60 389 71 q 278 50 326 50 l 72 50 l 72 0 l 294 0 q 412 13 365 0 q 487 51 458 25 q 527 117 515 78 q 539 210 539 156 q 524 284 539 249 q 480 347 510 319 q 403 392 450 375 q 289 408 356 408 q 194 433 231 408 q 157 521 157 458 q 189 606 157 576 q 288 636 221 636 l 494 636 m 314 736 l 467 896 l 433 896 l 293 797 l 154 896 l 119 896 l 272 736 l 314 736 z "},"›":{"ha":417,"x_min":61,"x_max":360,"o":"m 61 97 l 131 97 l 360 347 l 131 604 l 61 604 l 228 347 l 61 97 z "},"œ":{"ha":1117,"x_min":38,"x_max":1064,"o":"m 404 -19 q 541 1 481 -19 q 646 58 601 22 q 678 15 656 31 q 740 0 701 0 l 1064 0 l 1064 42 l 838 42 q 781 60 797 42 q 764 110 764 78 l 764 336 l 1021 336 l 1021 378 l 764 378 l 764 576 q 780 622 764 604 q 831 639 796 639 l 1064 639 l 1064 681 l 743 681 q 682 665 707 681 q 646 621 657 649 q 541 680 601 658 q 404 701 481 701 q 244 671 313 701 q 129 590 175 640 q 60 475 83 540 q 38 342 38 410 q 60 210 38 275 q 128 94 82 146 q 242 12 174 43 q 404 -19 311 -19 m 161 342 q 176 464 161 404 q 221 569 190 524 q 297 643 251 615 q 404 671 343 671 q 511 642 465 671 q 588 567 557 614 q 635 462 619 521 q 650 342 650 403 q 635 220 650 279 q 589 117 619 161 q 512 45 558 72 q 404 18 465 18 q 297 47 343 18 q 222 121 251 75 q 176 224 192 167 q 161 342 161 282 z "},"Ÿ":{"ha":750,"x_min":19,"x_max":728,"o":"m 361 1106 q 344 1146 361 1129 q 303 1163 326 1163 q 263 1146 279 1163 q 246 1106 246 1129 q 263 1065 246 1082 q 303 1049 279 1049 q 344 1065 326 1049 q 361 1106 361 1082 m 540 1106 q 524 1146 540 1129 q 483 1163 507 1163 q 442 1146 460 1163 q 425 1106 425 1129 q 442 1065 425 1082 q 483 1049 460 1049 q 524 1065 507 1049 q 540 1106 540 1082 m 179 971 l 19 971 l 301 485 l 301 0 l 443 0 l 443 493 l 728 972 l 676 972 l 425 547 l 179 971 z "},"¡":{"ha":236,"x_min":60,"x_max":190,"o":"m 139 633 q 135 651 139 647 q 125 656 131 656 q 115 651 119 656 q 111 633 111 647 q 101 466 108 557 q 88 283 94 375 q 75 103 81 190 q 69 -53 69 15 q 85 -104 69 -87 q 128 -121 101 -121 q 167 -104 151 -121 q 183 -53 183 -87 q 178 103 183 15 q 165 283 172 190 q 149 466 157 375 q 139 633 142 557 m 60 794 q 78 748 60 767 q 125 729 97 729 q 172 748 153 729 q 190 794 190 767 q 172 841 190 822 q 125 860 153 860 q 78 841 97 860 q 60 794 60 822 z "},"¢":{"ha":674,"x_min":38,"x_max":647,"o":"m 308 203 q 266 228 290 211 q 219 276 242 244 q 182 360 197 308 q 167 490 167 411 q 186 638 167 578 q 239 738 206 699 q 315 794 272 776 q 403 815 357 813 l 308 203 m 347 190 l 444 814 q 550 782 507 808 q 622 724 593 756 l 643 743 q 569 809 614 779 q 450 849 525 839 l 472 1000 l 431 1000 l 408 851 q 266 828 333 851 q 148 761 199 806 q 67 649 97 717 q 38 493 38 582 q 67 340 38 403 q 137 238 96 278 q 223 178 178 199 q 300 153 268 158 l 271 -28 l 313 -28 l 340 144 q 399 140 371 140 q 545 169 482 140 q 647 236 608 197 l 622 257 q 544 206 590 231 q 421 182 499 182 q 347 190 386 182 z "},"£":{"ha":767,"x_min":46,"x_max":743,"o":"m 528 979 q 314 925 389 979 q 215 768 239 871 l 160 514 l 50 514 l 50 486 l 154 486 l 144 443 l 50 443 l 50 415 l 138 415 l 46 0 l 669 0 l 669 42 l 190 42 l 274 417 l 438 417 l 438 444 l 281 444 l 290 486 l 438 486 l 438 514 l 296 514 l 356 783 q 413 902 375 867 q 525 938 451 938 q 603 922 572 938 q 654 881 635 907 q 682 819 674 854 q 690 743 690 783 l 743 743 q 734 833 743 790 q 701 909 725 876 q 635 960 676 942 q 528 979 593 979 z "},"¥":{"ha":750,"x_min":25,"x_max":728,"o":"m 171 971 l 25 971 l 301 493 l 142 493 l 142 465 l 301 465 l 301 424 l 142 424 l 142 396 l 301 396 l 301 0 l 443 0 l 443 396 l 603 396 l 603 424 l 443 424 l 443 465 l 603 465 l 603 493 l 443 493 l 728 972 l 669 972 l 419 546 l 171 971 z "},"¦":{"ha":185,"x_min":75,"x_max":124,"o":"m 124 454 l 75 454 l 75 0 l 124 0 l 124 454 m 75 606 l 124 606 l 124 1049 l 75 1049 l 75 606 z "},"§":{"ha":733,"x_min":36,"x_max":694,"o":"m 144 799 q 169 717 144 749 q 225 665 193 685 q 88 617 140 665 q 36 483 36 568 q 55 398 36 432 q 106 342 74 364 q 180 308 138 321 q 269 285 222 294 q 444 230 385 261 q 504 146 504 199 q 469 60 504 86 q 369 35 435 35 l 140 35 l 140 -15 l 385 -15 q 464 -6 424 -15 q 535 23 504 3 q 587 75 567 43 q 607 154 607 107 q 584 247 607 211 q 522 296 561 283 q 584 310 553 297 q 640 346 615 322 q 679 406 664 369 q 694 492 694 442 q 636 628 694 578 q 469 700 578 679 q 299 749 351 722 q 247 824 247 775 q 275 899 247 869 q 357 928 303 928 l 583 928 l 583 972 l 333 972 q 197 925 249 972 q 144 799 144 878 m 249 621 l 324 621 q 436 595 386 607 q 520 567 486 583 q 573 526 554 550 q 592 463 592 501 q 557 369 592 396 q 457 342 522 342 q 351 367 407 357 q 247 393 294 378 q 169 435 200 408 q 139 508 139 461 q 168 591 139 561 q 249 621 197 621 z "},"¨":{"ha":431,"x_min":51,"x_max":379,"o":"m 179 814 q 160 859 179 840 q 115 878 142 878 q 70 859 89 878 q 51 814 51 840 q 70 769 51 788 q 115 750 89 750 q 160 769 142 750 q 179 814 179 788 m 379 814 q 360 859 379 840 q 315 878 342 878 q 270 859 289 878 q 251 814 251 840 q 270 769 251 788 q 315 750 289 750 q 360 769 342 750 q 379 814 379 788 z "},"©":{"ha":800,"x_min":47,"x_max":778,"o":"m 260 547 q 269 599 260 574 q 298 643 279 624 q 346 674 317 663 q 413 686 375 686 q 490 671 457 686 q 544 639 522 656 l 544 672 q 493 700 524 686 q 413 714 463 714 q 333 699 367 714 q 277 662 300 685 q 243 608 254 639 q 232 547 232 578 q 243 485 232 515 q 277 432 254 456 q 334 394 300 408 q 413 379 368 379 q 497 396 465 379 q 544 428 528 413 l 544 461 q 491 422 521 438 q 413 407 461 407 q 346 419 375 407 q 298 451 317 431 q 269 496 279 471 q 260 547 260 521 m 778 540 q 749 682 778 615 q 671 799 721 749 q 554 877 621 849 q 413 906 488 906 q 271 877 338 906 q 154 799 204 849 q 76 682 104 749 q 47 540 47 615 q 76 399 47 465 q 154 282 104 332 q 271 203 204 232 q 413 175 338 175 q 554 203 488 175 q 671 282 621 232 q 749 399 721 332 q 778 540 778 465 m 76 542 q 103 673 76 611 q 175 781 129 735 q 283 853 221 826 q 414 879 344 879 q 545 853 483 879 q 653 781 607 826 q 725 673 699 735 q 751 542 751 611 q 725 410 751 472 q 653 303 699 349 q 545 231 607 257 q 414 204 483 204 q 283 231 344 204 q 175 303 221 257 q 103 410 129 349 q 76 542 76 472 z "},"ª":{"ha":521,"x_min":40,"x_max":476,"o":"m 476 353 l 40 353 l 40 311 l 476 311 l 476 353 m 200 860 l 53 410 l 86 410 l 124 524 l 335 524 l 371 410 l 454 410 l 303 860 q 283 896 296 883 q 250 908 271 908 q 219 896 231 908 q 200 860 207 883 m 251 781 l 321 553 l 133 553 l 207 783 q 229 811 217 811 q 251 781 243 811 z "},"«":{"ha":646,"x_min":49,"x_max":590,"o":"m 278 604 l 49 347 l 278 97 l 347 97 l 181 347 l 347 604 l 278 604 m 521 604 l 292 347 l 521 97 l 590 97 l 424 347 l 590 604 l 521 604 z "},"¬":{"ha":368,"x_min":44,"x_max":339,"o":"m 339 529 l 44 529 l 44 488 l 339 488 l 339 529 m 225 1013 l 107 994 l 110 972 l 163 982 l 163 576 l 225 576 l 225 1013 m 293 338 q 267 413 293 383 q 193 443 242 443 q 116 412 142 443 q 90 336 90 381 q 107 282 90 304 q 147 253 124 260 q 94 213 121 242 q 67 128 67 183 q 74 78 67 103 q 95 35 81 54 q 134 3 110 15 q 194 -8 158 -8 q 290 33 260 -8 q 321 129 321 75 q 312 180 321 158 q 290 216 303 201 q 263 240 278 231 q 236 253 249 249 q 276 282 260 261 q 293 338 293 303 m 243 338 q 230 285 243 310 q 193 261 217 261 q 151 285 165 261 q 138 338 138 310 q 151 398 138 371 q 193 425 165 425 q 231 397 218 425 q 243 338 243 369 m 125 138 q 143 208 125 178 q 193 239 161 239 q 243 208 224 239 q 263 138 263 178 q 259 92 263 114 q 248 51 256 69 q 227 22 240 33 q 194 11 214 11 q 162 22 175 11 q 140 51 149 33 q 128 92 132 69 q 125 138 125 114 z "},"®":{"ha":560,"x_min":57,"x_max":496,"o":"m 368 813 q 349 861 368 842 q 297 881 329 881 l 200 881 l 200 628 l 219 628 l 219 744 l 263 744 l 343 628 l 368 628 l 286 744 l 297 744 q 349 761 329 744 q 368 813 368 778 m 349 813 q 299 764 349 764 l 219 764 l 219 861 l 299 861 q 336 847 324 861 q 349 813 349 832 m 496 749 q 478 834 496 794 q 431 903 461 874 q 362 951 401 933 q 276 968 322 968 q 191 951 231 968 q 122 903 151 933 q 74 834 92 874 q 57 749 57 794 q 74 663 57 703 q 122 594 92 624 q 191 547 151 564 q 276 529 231 529 q 362 547 322 529 q 431 594 401 564 q 478 663 461 624 q 496 749 496 703 m 78 749 q 93 826 78 790 q 135 890 108 863 q 199 932 163 917 q 276 947 235 947 q 354 932 318 947 q 417 890 390 917 q 460 826 444 863 q 475 749 475 790 q 460 671 475 707 q 417 608 444 635 q 354 565 390 581 q 276 550 318 550 q 199 565 235 550 q 135 608 163 581 q 93 671 108 635 q 78 749 78 707 z "},"¯":{"ha":465,"x_min":63,"x_max":417,"o":"m 417 799 l 63 799 l 63 757 l 417 757 l 417 799 z "},"°":{"ha":289,"x_min":31,"x_max":258,"o":"m 258 836 q 225 917 258 883 q 144 950 192 950 q 64 917 97 950 q 31 836 31 883 q 64 756 31 789 q 144 722 97 722 q 225 756 192 722 q 258 836 258 789 m 57 836 q 83 898 57 872 q 144 924 108 924 q 206 898 181 924 q 232 836 232 872 q 206 774 232 800 q 144 749 181 749 q 83 774 108 749 q 57 836 57 800 z "},"²":{"ha":368,"x_min":50,"x_max":314,"o":"m 57 913 l 85 913 q 115 967 92 942 q 178 992 139 992 q 242 972 222 992 q 263 913 263 951 q 246 847 263 876 q 207 790 229 818 l 50 575 l 314 575 l 314 600 l 131 600 l 249 761 q 295 833 276 799 q 314 913 314 868 q 276 994 314 968 q 186 1019 239 1019 q 98 988 129 1019 q 57 913 67 957 z "},"³":{"ha":368,"x_min":72,"x_max":306,"o":"m 72 1011 l 72 994 l 228 994 l 97 842 l 213 842 q 251 806 251 842 q 235 764 251 788 l 97 575 l 163 575 l 290 754 q 301 775 297 764 q 306 801 306 786 q 288 841 306 825 q 238 857 271 857 l 175 857 l 306 1011 l 72 1011 z "},"´":{"ha":333,"x_min":79,"x_max":267,"o":"m 235 918 q 190 892 210 918 l 79 754 l 240 851 q 261 871 256 861 q 267 890 267 881 q 257 910 267 903 q 235 918 247 918 z "},"µ":{"ha":368,"x_min":44,"x_max":339,"o":"m 339 529 l 44 529 l 44 488 l 339 488 l 339 529 m 57 336 l 85 336 q 115 390 92 365 q 178 415 139 415 q 242 395 222 415 q 263 336 263 375 q 246 271 263 300 q 207 214 229 242 l 50 -1 l 314 -1 l 314 24 l 131 24 l 249 185 q 295 257 276 222 q 314 336 314 292 q 276 417 314 392 q 186 443 239 443 q 98 412 129 443 q 57 336 67 381 m 225 1013 l 107 994 l 110 972 l 163 982 l 163 576 l 225 576 l 225 1013 z "},"¶":{"ha":792,"x_min":57,"x_max":721,"o":"m 507 -104 l 507 972 l 297 972 q 119 918 182 972 q 57 771 57 864 q 119 622 57 675 q 304 569 182 569 l 368 569 l 368 -104 l 507 -104 m 590 -104 l 721 -104 l 721 972 l 590 972 l 590 -104 z "},"·":{"ha":274,"x_min":81,"x_max":208,"o":"m 208 494 q 190 540 208 521 q 144 558 171 558 q 99 540 118 558 q 81 494 81 521 q 99 449 81 468 q 144 431 118 431 q 190 449 171 431 q 208 494 208 468 z "},"¸":{"ha":257,"x_min":65,"x_max":222,"o":"m 143 -46 l 147 0 l 106 0 l 99 -62 q 171 -122 171 -74 q 156 -157 171 -146 q 117 -168 140 -168 q 97 -167 107 -168 q 76 -161 88 -165 l 65 -190 q 97 -199 82 -197 q 128 -201 113 -201 q 195 -181 168 -201 q 222 -125 222 -161 q 201 -72 222 -90 q 143 -46 179 -53 z "},"¹":{"ha":368,"x_min":107,"x_max":225,"o":"m 225 1013 l 107 994 l 110 972 l 163 982 l 163 576 l 225 576 l 225 1013 z "},"º":{"ha":590,"x_min":38,"x_max":568,"o":"m 568 357 l 38 357 l 38 315 l 568 315 l 568 357 m 556 657 q 540 747 556 703 q 492 827 524 792 q 411 885 460 863 q 299 907 363 907 q 187 886 235 907 q 108 830 139 865 q 60 749 76 794 q 44 657 44 704 q 60 566 44 611 q 107 485 75 521 q 186 428 139 450 q 299 406 233 406 q 410 427 363 406 q 491 483 458 449 q 540 563 524 518 q 556 657 556 608 m 131 657 q 141 740 131 700 q 172 811 151 781 q 224 860 193 842 q 299 878 256 878 q 372 859 340 878 q 426 810 404 840 q 458 739 447 779 q 469 657 469 699 q 459 573 469 613 q 427 502 449 533 q 374 453 406 471 q 299 435 342 435 q 225 454 257 435 q 172 505 193 474 q 141 576 151 536 q 131 657 131 615 z "},"»":{"ha":646,"x_min":61,"x_max":614,"o":"m 61 97 l 131 97 l 360 347 l 131 604 l 61 604 l 228 347 l 61 97 m 315 97 l 385 97 l 614 347 l 385 604 l 315 604 l 482 347 l 315 97 z "},"¼":{"ha":368,"x_min":18,"x_max":339,"o":"m 339 529 l 44 529 l 44 488 l 339 488 l 339 529 m 296 435 l 232 435 l 18 143 l 233 143 l 233 -1 l 296 -1 l 296 143 l 335 143 l 335 168 l 296 168 l 296 435 m 225 1013 l 107 994 l 110 972 l 163 982 l 163 576 l 225 576 l 225 1013 m 233 168 l 64 168 l 233 397 l 233 168 z "},"½":{"ha":368,"x_min":44,"x_max":339,"o":"m 339 529 l 44 529 l 44 488 l 339 488 l 339 529 m 57 336 l 85 336 q 115 390 92 365 q 178 415 139 415 q 242 395 222 415 q 263 336 263 375 q 246 271 263 300 q 207 214 229 242 l 50 -1 l 314 -1 l 314 24 l 131 24 l 249 185 q 295 257 276 222 q 314 336 314 292 q 276 417 314 392 q 186 443 239 443 q 98 412 129 443 q 57 336 67 381 m 225 1013 l 107 994 l 110 972 l 163 982 l 163 576 l 225 576 l 225 1013 z "},"¾":{"ha":368,"x_min":18,"x_max":339,"o":"m 339 529 l 44 529 l 44 488 l 339 488 l 339 529 m 72 1011 l 72 994 l 228 994 l 97 842 l 213 842 q 251 806 251 842 q 235 764 251 788 l 97 575 l 163 575 l 290 754 q 301 775 297 764 q 306 801 306 786 q 288 841 306 825 q 238 857 271 857 l 175 857 l 306 1011 l 72 1011 m 296 436 l 232 436 l 18 144 l 233 144 l 233 0 l 296 0 l 296 144 l 335 144 l 335 169 l 296 169 l 296 436 m 233 169 l 64 169 l 233 399 l 233 169 z "},"¿":{"ha":600,"x_min":51,"x_max":542,"o":"m 178 58 q 189 124 178 97 q 219 172 200 151 q 267 212 239 193 q 332 251 296 231 q 394 343 394 290 q 382 465 394 386 q 358 639 369 544 q 356 656 357 650 q 347 663 354 663 q 335 639 336 663 q 319 483 328 556 q 300 349 311 410 q 212 308 256 331 q 132 254 168 285 q 74 183 96 224 q 51 92 51 143 q 72 -11 51 33 q 128 -85 93 -56 q 209 -130 163 -115 q 308 -144 256 -144 q 403 -129 361 -144 q 474 -88 444 -114 q 520 -30 503 -62 q 542 39 538 3 l 493 39 q 439 -61 486 -19 q 308 -103 392 -103 q 212 -58 246 -103 q 178 58 178 -12 m 282 782 q 301 737 282 756 q 346 718 319 718 q 391 737 372 718 q 410 782 410 756 q 391 827 410 808 q 346 846 372 846 q 301 827 319 846 q 282 782 282 808 z "},"À":{"ha":939,"x_min":22,"x_max":925,"o":"m 506 1025 l 394 1163 q 350 1189 375 1189 q 328 1181 338 1189 q 318 1161 318 1174 q 324 1142 318 1151 q 344 1122 329 1132 l 506 1025 m 467 1014 l 22 0 l 69 0 l 197 289 l 656 289 l 786 0 l 925 0 l 467 1014 m 426 801 l 632 331 l 217 331 l 426 801 z "},"Á":{"ha":939,"x_min":22,"x_max":925,"o":"m 467 1014 l 22 0 l 69 0 l 197 289 l 656 289 l 786 0 l 925 0 l 467 1014 m 426 801 l 632 331 l 217 331 l 426 801 m 597 1176 q 553 1150 572 1176 l 442 1013 l 603 1110 q 624 1129 618 1119 q 629 1149 629 1139 q 619 1169 629 1161 q 597 1176 610 1176 z "},"Â":{"ha":939,"x_min":22,"x_max":925,"o":"m 454 1188 l 301 1028 l 335 1028 l 475 1126 l 614 1028 l 649 1028 l 496 1188 l 454 1188 m 467 1014 l 22 0 l 69 0 l 197 289 l 656 289 l 786 0 l 925 0 l 467 1014 m 426 801 l 632 331 l 217 331 l 426 801 z "},"Ã":{"ha":939,"x_min":22,"x_max":925,"o":"m 260 1094 l 294 1061 q 331 1088 310 1074 q 397 1103 353 1103 q 433 1095 418 1103 q 464 1076 449 1088 q 502 1054 482 1065 q 554 1043 522 1043 q 629 1060 600 1043 q 681 1101 658 1078 l 649 1131 q 610 1103 632 1114 q 551 1093 589 1093 q 515 1103 532 1093 q 479 1124 497 1113 q 443 1143 463 1135 q 397 1151 424 1151 q 313 1133 344 1151 q 260 1094 282 1114 m 467 1014 l 22 0 l 69 0 l 197 289 l 656 289 l 786 0 l 925 0 l 467 1014 m 426 801 l 632 331 l 217 331 l 426 801 z "},"Ä":{"ha":939,"x_min":22,"x_max":925,"o":"m 435 1106 q 417 1146 435 1129 q 376 1163 400 1163 q 336 1146 353 1163 q 319 1106 319 1129 q 336 1065 319 1082 q 376 1049 353 1049 q 417 1065 400 1049 q 435 1106 435 1082 m 614 1106 q 597 1146 614 1129 q 557 1163 581 1163 q 516 1146 533 1163 q 499 1106 499 1129 q 516 1065 499 1082 q 557 1049 533 1049 q 597 1065 581 1049 q 614 1106 614 1082 m 467 1014 l 22 0 l 69 0 l 197 289 l 656 289 l 786 0 l 925 0 l 467 1014 m 426 801 l 632 331 l 217 331 l 426 801 z "},"Å":{"ha":939,"x_min":22,"x_max":925,"o":"m 558 1119 q 531 1184 558 1157 q 467 1211 504 1211 q 402 1184 429 1211 q 375 1119 375 1157 q 402 1055 375 1082 q 467 1028 429 1028 q 531 1055 504 1028 q 558 1119 558 1082 m 397 1119 q 417 1169 397 1149 q 467 1189 438 1189 q 516 1169 496 1189 q 536 1119 536 1149 q 516 1070 536 1090 q 467 1050 496 1050 q 417 1070 438 1050 q 397 1119 397 1090 m 467 1014 l 22 0 l 69 0 l 197 289 l 656 289 l 786 0 l 925 0 l 467 1014 m 426 801 l 632 331 l 217 331 l 426 801 z "},"Æ":{"ha":1050,"x_min":21,"x_max":989,"o":"m 989 972 l 500 972 l 21 0 l 69 0 l 311 483 l 521 483 l 521 0 l 989 0 l 989 42 l 661 42 l 661 483 l 989 483 l 989 525 l 661 525 l 661 931 l 989 931 l 989 972 m 332 525 l 521 903 l 521 525 l 332 525 z "},"Ç":{"ha":924,"x_min":44,"x_max":900,"o":"m 544 -62 l 544 -11 q 664 3 610 -10 q 762 35 718 17 q 840 74 806 53 q 900 117 874 96 l 867 153 q 738 76 814 108 q 546 44 663 44 q 400 80 464 44 q 292 176 336 115 q 224 316 247 236 q 200 483 200 396 q 222 653 200 572 q 289 794 244 733 q 399 892 333 856 q 550 928 464 928 q 649 916 603 928 q 735 886 696 904 q 805 847 774 868 q 860 806 836 825 l 893 840 q 832 889 867 864 q 751 935 797 914 q 647 969 706 956 q 513 983 588 983 q 310 940 397 983 q 164 827 224 897 q 74 667 104 757 q 44 483 44 578 q 73 299 44 388 q 158 144 101 211 q 300 35 215 76 q 497 -11 385 -7 l 497 -87 q 551 -102 528 -90 q 574 -147 574 -114 q 555 -189 574 -174 q 504 -204 536 -204 q 454 -194 479 -204 l 433 -229 q 479 -245 457 -240 q 521 -250 501 -250 q 604 -222 572 -250 q 636 -153 636 -193 q 627 -112 636 -129 q 605 -85 618 -96 q 575 -70 592 -75 q 544 -62 558 -65 z "},"È":{"ha":611,"x_min":85,"x_max":551,"o":"m 399 1013 l 288 1150 q 243 1176 268 1176 q 221 1169 231 1176 q 211 1149 211 1161 q 217 1129 211 1139 q 238 1110 222 1119 l 399 1013 m 551 931 l 551 972 l 85 972 l 85 0 l 551 0 l 551 42 l 224 42 l 224 483 l 551 483 l 551 525 l 224 525 l 224 931 l 551 931 z "},"É":{"ha":611,"x_min":85,"x_max":551,"o":"m 446 1176 q 401 1150 421 1176 l 290 1013 l 451 1110 q 472 1129 467 1119 q 478 1149 478 1139 q 468 1169 478 1161 q 446 1176 458 1176 m 551 931 l 551 972 l 85 972 l 85 0 l 551 0 l 551 42 l 224 42 l 224 483 l 551 483 l 551 525 l 224 525 l 224 931 l 551 931 z "},"Ê":{"ha":611,"x_min":85,"x_max":551,"o":"m 304 1188 l 151 1028 l 185 1028 l 325 1126 l 464 1028 l 499 1028 l 346 1188 l 304 1188 m 551 931 l 551 972 l 85 972 l 85 0 l 551 0 l 551 42 l 224 42 l 224 483 l 551 483 l 551 525 l 224 525 l 224 931 l 551 931 z "},"Ë":{"ha":611,"x_min":85,"x_max":551,"o":"m 294 1106 q 277 1146 294 1129 q 236 1163 260 1163 q 196 1146 213 1163 q 179 1106 179 1129 q 196 1065 179 1082 q 236 1049 213 1049 q 277 1065 260 1049 q 294 1106 294 1082 m 474 1106 q 457 1146 474 1129 q 417 1163 440 1163 q 376 1146 393 1163 q 358 1106 358 1129 q 376 1065 358 1082 q 417 1049 393 1049 q 457 1065 440 1049 q 474 1106 474 1082 m 551 931 l 551 972 l 85 972 l 85 0 l 551 0 l 551 42 l 224 42 l 224 483 l 551 483 l 551 525 l 224 525 l 224 931 l 551 931 z "},"Ì":{"ha":297,"x_min":-21,"x_max":218,"o":"m 167 1013 l 56 1150 q 11 1176 36 1176 q -11 1169 -1 1176 q -21 1149 -21 1161 q -15 1129 -21 1139 q 6 1110 -10 1119 l 167 1013 m 79 0 l 218 0 l 218 972 l 79 972 l 79 0 z "},"Í":{"ha":297,"x_min":79,"x_max":304,"o":"m 79 0 l 218 0 l 218 972 l 79 972 l 79 0 m 272 1176 q 228 1150 247 1176 l 117 1013 l 278 1110 q 299 1129 293 1119 q 304 1149 304 1139 q 294 1169 304 1161 q 272 1176 285 1176 z "},"Î":{"ha":297,"x_min":-24,"x_max":324,"o":"m 129 1188 l -24 1028 l 10 1028 l 150 1126 l 289 1028 l 324 1028 l 171 1188 l 129 1188 m 79 0 l 218 0 l 218 972 l 79 972 l 79 0 z "},"Ï":{"ha":297,"x_min":3,"x_max":297,"o":"m 118 1106 q 101 1146 118 1129 q 60 1163 83 1163 q 19 1146 36 1163 q 3 1106 3 1129 q 19 1065 3 1082 q 60 1049 36 1049 q 101 1065 83 1049 q 118 1106 118 1082 m 297 1106 q 281 1146 297 1129 q 240 1163 264 1163 q 199 1146 217 1163 q 182 1106 182 1129 q 199 1065 182 1082 q 240 1049 217 1049 q 281 1065 264 1049 q 297 1106 297 1082 m 79 0 l 218 0 l 218 972 l 79 972 l 79 0 z "},"Ð":{"ha":917,"x_min":15,"x_max":867,"o":"m 222 513 l 222 931 l 438 931 q 567 894 513 931 q 656 797 621 858 q 707 656 690 736 q 724 486 724 575 q 707 317 724 397 q 656 175 690 236 q 567 78 621 114 q 438 42 513 42 l 222 42 l 222 443 l 317 443 l 317 513 l 222 513 m 83 443 l 83 0 l 451 0 q 621 37 544 0 q 752 138 697 74 q 837 292 807 203 q 867 486 867 382 q 837 678 867 589 q 753 832 807 767 q 622 935 699 897 q 451 972 546 972 l 83 972 l 83 513 l 15 513 l 15 443 l 83 443 z "},"Ñ":{"ha":854,"x_min":83,"x_max":772,"o":"m 226 1094 l 261 1061 q 298 1088 276 1074 q 364 1103 319 1103 q 400 1095 385 1103 q 431 1076 415 1088 q 469 1054 449 1065 q 521 1043 489 1043 q 596 1060 567 1043 q 647 1101 625 1078 l 615 1131 q 577 1103 599 1114 q 518 1093 556 1093 q 481 1103 499 1093 q 446 1124 464 1113 q 410 1143 429 1135 q 364 1151 390 1151 q 280 1133 311 1151 q 226 1094 249 1114 m 83 972 l 83 0 l 125 0 l 125 811 l 772 -19 l 772 972 l 731 972 l 731 263 l 174 972 l 83 972 z "},"Ò":{"ha":1069,"x_min":47,"x_max":1022,"o":"m 593 1013 l 482 1150 q 438 1176 463 1176 q 415 1169 425 1176 q 406 1149 406 1161 q 411 1129 406 1139 q 432 1110 417 1119 l 593 1013 m 1022 486 q 991 670 1022 581 q 898 830 960 760 q 745 943 836 900 q 535 986 654 986 q 324 943 415 986 q 171 830 232 900 q 78 670 110 760 q 47 486 47 581 q 78 301 47 392 q 171 138 110 210 q 324 23 232 67 q 535 -21 415 -21 q 745 23 654 -21 q 898 138 836 67 q 991 301 960 210 q 1022 486 1022 392 m 192 486 q 213 656 192 574 q 276 802 233 738 q 384 906 319 867 q 535 944 449 944 q 685 906 621 944 q 792 802 750 867 q 856 656 835 738 q 878 486 878 574 q 856 317 878 399 q 792 170 835 235 q 685 67 750 106 q 535 28 621 28 q 384 67 449 28 q 276 170 319 106 q 213 317 233 235 q 192 486 192 399 z "},"Ó":{"ha":1069,"x_min":47,"x_max":1022,"o":"m 1022 486 q 991 670 1022 581 q 898 830 960 760 q 745 943 836 900 q 535 986 654 986 q 324 943 415 986 q 171 830 232 900 q 78 670 110 760 q 47 486 47 581 q 78 301 47 392 q 171 138 110 210 q 324 23 232 67 q 535 -21 415 -21 q 745 23 654 -21 q 898 138 836 67 q 991 301 960 210 q 1022 486 1022 392 m 192 486 q 213 656 192 574 q 276 802 233 738 q 384 906 319 867 q 535 944 449 944 q 685 906 621 944 q 792 802 750 867 q 856 656 835 738 q 878 486 878 574 q 856 317 878 399 q 792 170 835 235 q 685 67 750 106 q 535 28 621 28 q 384 67 449 28 q 276 170 319 106 q 213 317 233 235 q 192 486 192 399 m 663 1176 q 618 1150 638 1176 l 507 1013 l 668 1110 q 689 1129 683 1119 q 694 1149 694 1139 q 685 1169 694 1161 q 663 1176 675 1176 z "},"Ô":{"ha":1069,"x_min":47,"x_max":1022,"o":"m 515 1188 l 363 1028 l 396 1028 l 536 1126 l 675 1028 l 710 1028 l 557 1188 l 515 1188 m 1022 486 q 991 670 1022 581 q 898 830 960 760 q 745 943 836 900 q 535 986 654 986 q 324 943 415 986 q 171 830 232 900 q 78 670 110 760 q 47 486 47 581 q 78 301 47 392 q 171 138 110 210 q 324 23 232 67 q 535 -21 415 -21 q 745 23 654 -21 q 898 138 836 67 q 991 301 960 210 q 1022 486 1022 392 m 192 486 q 213 656 192 574 q 276 802 233 738 q 384 906 319 867 q 535 944 449 944 q 685 906 621 944 q 792 802 750 867 q 856 656 835 738 q 878 486 878 574 q 856 317 878 399 q 792 170 835 235 q 685 67 750 106 q 535 28 621 28 q 384 67 449 28 q 276 170 319 106 q 213 317 233 235 q 192 486 192 399 z "},"Õ":{"ha":1056,"x_min":47,"x_max":1022,"o":"m 335 1094 l 369 1061 q 406 1088 385 1074 q 472 1103 428 1103 q 508 1095 493 1103 q 539 1076 524 1088 q 577 1054 557 1065 q 629 1043 597 1043 q 704 1060 675 1043 q 756 1101 733 1078 l 724 1131 q 685 1103 707 1114 q 626 1093 664 1093 q 590 1103 607 1093 q 554 1124 572 1113 q 518 1143 538 1135 q 472 1151 499 1151 q 388 1133 419 1151 q 335 1094 357 1114 m 1022 486 q 991 670 1022 581 q 898 830 960 760 q 745 943 836 900 q 535 986 654 986 q 324 943 415 986 q 171 830 232 900 q 78 670 110 760 q 47 486 47 581 q 78 301 47 392 q 171 138 110 210 q 324 23 232 67 q 535 -21 415 -21 q 745 23 654 -21 q 898 138 836 67 q 991 301 960 210 q 1022 486 1022 392 m 192 486 q 213 656 192 574 q 276 802 233 738 q 384 906 319 867 q 535 944 449 944 q 685 906 621 944 q 792 802 750 867 q 856 656 835 738 q 878 486 878 574 q 856 317 878 399 q 792 170 835 235 q 685 67 750 106 q 535 28 621 28 q 384 67 449 28 q 276 170 319 106 q 213 317 233 235 q 192 486 192 399 z "},"Ö":{"ha":1056,"x_min":47,"x_max":1022,"o":"m 504 1106 q 487 1146 504 1129 q 446 1163 469 1163 q 406 1146 422 1163 q 389 1106 389 1129 q 406 1065 389 1082 q 446 1049 422 1049 q 487 1065 469 1049 q 504 1106 504 1082 m 683 1106 q 667 1146 683 1129 q 626 1163 650 1163 q 585 1146 603 1163 q 568 1106 568 1129 q 585 1065 568 1082 q 626 1049 603 1049 q 667 1065 650 1049 q 683 1106 683 1082 m 1022 486 q 991 670 1022 581 q 898 830 960 760 q 745 943 836 900 q 535 986 654 986 q 324 943 415 986 q 171 830 232 900 q 78 670 110 760 q 47 486 47 581 q 78 301 47 392 q 171 138 110 210 q 324 23 232 67 q 535 -21 415 -21 q 745 23 654 -21 q 898 138 836 67 q 991 301 960 210 q 1022 486 1022 392 m 192 486 q 213 656 192 574 q 276 802 233 738 q 384 906 319 867 q 535 944 449 944 q 685 906 621 944 q 792 802 750 867 q 856 656 835 738 q 878 486 878 574 q 856 317 878 399 q 792 170 835 235 q 685 67 750 106 q 535 28 621 28 q 384 67 449 28 q 276 170 319 106 q 213 317 233 235 q 192 486 192 399 z "},"×":{"ha":501,"x_min":44,"x_max":463,"o":"m 93 574 l 47 543 l 218 289 l 44 32 l 90 0 l 253 240 l 415 0 l 463 29 l 288 290 l 458 544 l 411 574 l 253 336 l 93 574 z "},"Ø":{"ha":1069,"x_min":47,"x_max":1022,"o":"m 294 144 l 835 721 q 867 608 857 668 q 878 486 878 549 q 856 317 878 399 q 792 170 835 235 q 685 67 750 106 q 535 28 621 28 q 397 60 456 28 q 294 144 338 92 m 928 956 l 854 875 q 714 956 793 926 q 535 986 635 986 q 324 943 415 986 q 171 830 232 900 q 78 670 110 760 q 47 486 47 581 q 79 297 47 389 q 174 135 111 206 l 93 47 l 150 -10 l 233 79 q 367 6 292 32 q 535 -21 443 -21 q 745 23 654 -21 q 898 138 836 67 q 991 301 960 210 q 1022 486 1022 392 q 996 657 1022 574 q 917 808 969 740 l 993 890 l 928 956 m 535 944 q 685 906 622 944 q 790 806 747 868 l 250 218 q 206 347 219 278 q 192 486 192 415 q 213 656 192 574 q 276 802 233 738 q 384 906 319 867 q 535 944 449 944 z "},"Ù":{"ha":731,"x_min":85,"x_max":647,"o":"m 443 1013 l 332 1150 q 288 1176 313 1176 q 265 1169 275 1176 q 256 1149 256 1161 q 261 1129 256 1139 q 282 1110 267 1119 l 443 1013 m 224 242 l 224 972 l 85 972 l 85 254 q 109 138 85 188 q 175 54 133 88 q 272 5 217 21 q 390 -11 328 -11 q 491 5 444 -11 q 572 53 538 21 q 627 134 607 86 q 647 247 647 182 l 647 972 l 606 972 l 606 246 q 589 158 606 196 q 545 95 572 121 q 483 57 518 69 q 413 44 449 44 q 276 95 329 44 q 224 242 224 146 z "},"Ú":{"ha":731,"x_min":85,"x_max":647,"o":"m 224 242 l 224 972 l 85 972 l 85 254 q 109 138 85 188 q 175 54 133 88 q 272 5 217 21 q 390 -11 328 -11 q 491 5 444 -11 q 572 53 538 21 q 627 134 607 86 q 647 247 647 182 l 647 972 l 606 972 l 606 246 q 589 158 606 196 q 545 95 572 121 q 483 57 518 69 q 413 44 449 44 q 276 95 329 44 q 224 242 224 146 m 507 1176 q 463 1150 482 1176 l 351 1013 l 513 1110 q 533 1129 528 1119 q 539 1149 539 1139 q 529 1169 539 1161 q 507 1176 519 1176 z "},"Û":{"ha":731,"x_min":85,"x_max":647,"o":"m 363 1183 l 210 1028 l 243 1028 l 383 1126 l 522 1028 l 557 1028 l 404 1183 l 363 1183 m 224 242 l 224 972 l 85 972 l 85 254 q 109 138 85 188 q 175 54 133 88 q 272 5 217 21 q 390 -11 328 -11 q 491 5 444 -11 q 572 53 538 21 q 627 134 607 86 q 647 247 647 182 l 647 972 l 606 972 l 606 246 q 589 158 606 196 q 545 95 572 121 q 483 57 518 69 q 413 44 449 44 q 276 95 329 44 q 224 242 224 146 z "},"Ü":{"ha":731,"x_min":85,"x_max":647,"o":"m 361 1106 q 344 1146 361 1129 q 303 1163 326 1163 q 263 1146 279 1163 q 246 1106 246 1129 q 263 1065 246 1082 q 303 1049 279 1049 q 344 1065 326 1049 q 361 1106 361 1082 m 540 1106 q 524 1146 540 1129 q 483 1163 507 1163 q 442 1146 460 1163 q 425 1106 425 1129 q 442 1065 425 1082 q 483 1049 460 1049 q 524 1065 507 1049 q 540 1106 540 1082 m 224 242 l 224 972 l 85 972 l 85 254 q 109 138 85 188 q 175 54 133 88 q 272 5 217 21 q 390 -11 328 -11 q 491 5 444 -11 q 572 53 538 21 q 627 134 607 86 q 647 247 647 182 l 647 972 l 606 972 l 606 246 q 589 158 606 196 q 545 95 572 121 q 483 57 518 69 q 413 44 449 44 q 276 95 329 44 q 224 242 224 146 z "},"Ý":{"ha":750,"x_min":19,"x_max":728,"o":"m 179 971 l 19 971 l 301 485 l 301 0 l 443 0 l 443 493 l 728 972 l 676 972 l 425 547 l 179 971 m 515 1176 q 471 1150 490 1176 l 360 1013 l 521 1110 q 542 1129 536 1119 q 547 1149 547 1139 q 538 1169 547 1161 q 515 1176 528 1176 z "},"Þ":{"ha":708,"x_min":83,"x_max":674,"o":"m 674 538 q 653 634 674 589 q 597 711 633 679 q 508 762 560 743 q 393 781 457 781 l 222 781 l 222 972 l 83 972 l 83 0 l 222 0 l 222 294 l 393 294 q 508 313 457 294 q 597 364 560 332 q 653 440 633 396 q 674 538 674 485 m 547 538 q 501 393 547 450 q 368 336 456 336 l 222 336 l 222 739 l 368 739 q 501 682 454 739 q 547 538 547 625 z "},"ß":{"ha":833,"x_min":31,"x_max":781,"o":"m 126 639 l 126 0 l 251 0 l 251 849 q 263 908 251 879 q 298 960 275 938 q 353 995 321 982 q 426 1008 385 1008 q 528 994 485 1008 q 599 956 571 979 q 640 902 626 932 q 653 842 653 872 q 629 749 653 786 q 544 681 606 713 q 402 590 447 631 q 357 493 357 550 q 392 420 357 450 q 494 363 428 390 q 585 313 550 339 q 642 262 621 288 q 670 210 663 236 q 678 161 678 183 q 648 80 678 110 q 564 50 618 50 l 372 50 l 372 0 l 558 0 q 649 10 608 0 q 719 42 690 19 q 765 101 749 65 q 781 189 781 136 q 764 270 781 231 q 720 342 747 310 q 660 400 693 375 q 594 438 628 425 q 488 484 524 465 q 453 533 453 503 q 478 580 453 557 q 572 636 503 603 q 682 727 653 675 q 711 842 711 779 q 692 919 711 882 q 638 985 674 957 q 549 1031 601 1014 q 426 1047 496 1047 q 314 1033 368 1047 q 218 990 260 1018 q 151 919 176 963 q 126 821 126 876 l 126 681 l 31 681 l 31 639 l 126 639 z "},"à":{"ha":597,"x_min":14,"x_max":585,"o":"m 311 754 l 200 892 q 156 918 181 918 q 133 910 143 918 q 124 890 124 903 q 129 871 124 881 q 150 851 135 861 l 311 754 m 222 639 l 14 0 l 61 0 l 114 161 l 414 161 l 467 0 l 585 0 l 369 639 q 341 690 358 671 q 294 708 324 708 q 250 690 267 708 q 222 639 233 671 m 296 528 l 396 203 l 128 203 l 233 531 q 247 559 240 549 q 265 569 254 569 q 283 558 276 569 q 296 528 289 547 z "},"á":{"ha":597,"x_min":14,"x_max":585,"o":"m 222 639 l 14 0 l 61 0 l 114 161 l 414 161 l 467 0 l 585 0 l 369 639 q 341 690 358 671 q 294 708 324 708 q 250 690 267 708 q 222 639 233 671 m 296 528 l 396 203 l 128 203 l 233 531 q 247 559 240 549 q 265 569 254 569 q 283 558 276 569 q 296 528 289 547 m 426 918 q 382 892 401 918 l 271 754 l 432 851 q 453 871 447 861 q 458 890 458 881 q 449 910 458 903 q 426 918 439 918 z "},"â":{"ha":597,"x_min":14,"x_max":585,"o":"m 283 896 l 131 736 l 164 736 l 304 835 l 443 736 l 478 736 l 325 896 l 283 896 m 222 639 l 14 0 l 61 0 l 114 161 l 414 161 l 467 0 l 585 0 l 369 639 q 341 690 358 671 q 294 708 324 708 q 250 690 267 708 q 222 639 233 671 m 296 528 l 396 203 l 128 203 l 233 531 q 247 559 240 549 q 265 569 254 569 q 283 558 276 569 q 296 528 289 547 z "},"ã":{"ha":597,"x_min":14,"x_max":585,"o":"m 89 796 l 124 763 q 160 790 139 775 q 226 804 182 804 q 263 797 247 804 q 293 778 278 789 q 331 756 311 767 q 383 744 351 744 q 458 762 429 744 q 510 803 488 779 l 478 832 q 440 805 461 815 q 381 794 418 794 q 344 804 361 794 q 308 825 326 814 q 272 844 292 836 q 226 853 253 853 q 142 834 174 853 q 89 796 111 815 m 222 639 l 14 0 l 61 0 l 114 161 l 414 161 l 467 0 l 585 0 l 369 639 q 341 690 358 671 q 294 708 324 708 q 250 690 267 708 q 222 639 233 671 m 296 528 l 396 203 l 128 203 l 233 531 q 247 559 240 549 q 265 569 254 569 q 283 558 276 569 q 296 528 289 547 z "},"ä":{"ha":597,"x_min":14,"x_max":585,"o":"m 257 814 q 238 859 257 840 q 193 878 219 878 q 148 859 167 878 q 129 814 129 840 q 148 769 129 788 q 193 750 167 750 q 238 769 219 750 q 257 814 257 788 m 457 814 q 438 859 457 840 q 393 878 419 878 q 348 859 367 878 q 329 814 329 840 q 348 769 329 788 q 393 750 367 750 q 438 769 419 750 q 457 814 457 788 m 222 639 l 14 0 l 61 0 l 114 161 l 414 161 l 467 0 l 585 0 l 369 639 q 341 690 358 671 q 294 708 324 708 q 250 690 267 708 q 222 639 233 671 m 296 528 l 396 203 l 128 203 l 233 531 q 247 559 240 549 q 265 569 254 569 q 283 558 276 569 q 296 528 289 547 z "},"å":{"ha":597,"x_min":14,"x_max":585,"o":"m 413 872 q 379 953 413 919 q 299 986 346 986 q 218 953 251 986 q 185 872 185 919 q 218 792 185 825 q 299 758 251 758 q 379 792 346 758 q 413 872 413 825 m 211 872 q 237 934 211 908 q 299 960 263 960 q 360 934 335 960 q 386 872 386 908 q 360 810 386 836 q 299 785 335 785 q 237 810 263 785 q 211 872 211 836 m 222 639 l 14 0 l 61 0 l 114 161 l 414 161 l 467 0 l 585 0 l 369 639 q 341 690 358 671 q 294 708 324 708 q 250 690 267 708 q 222 639 233 671 m 296 528 l 396 203 l 128 203 l 233 531 q 247 559 240 549 q 265 569 254 569 q 283 558 276 569 q 296 528 289 547 z "},"æ":{"ha":850,"x_min":29,"x_max":803,"o":"m 378 378 l 257 378 l 353 575 q 368 589 360 589 q 378 575 378 589 l 378 378 m 803 681 l 431 681 q 325 611 357 681 l 29 0 l 78 0 l 239 336 l 378 336 l 378 89 q 397 22 378 44 q 468 0 417 0 l 803 0 l 803 42 l 565 42 q 519 58 535 42 q 503 97 503 74 l 503 336 l 760 336 l 760 378 l 503 378 l 503 599 q 542 639 503 639 l 803 639 l 803 681 z "},"ç":{"ha":674,"x_min":39,"x_max":647,"o":"m 39 336 q 67 187 39 251 q 141 78 94 122 q 247 9 188 33 q 368 -19 306 -15 l 368 -76 q 411 -88 393 -79 q 429 -125 429 -97 q 414 -158 429 -146 q 374 -169 399 -169 q 356 -168 365 -169 q 335 -162 346 -167 l 318 -190 q 355 -203 338 -200 q 388 -207 372 -207 q 453 -184 428 -207 q 479 -129 479 -161 q 472 -97 479 -110 q 455 -75 465 -83 q 431 -62 444 -67 q 407 -57 418 -58 l 407 -21 q 495 -11 457 -21 q 563 13 533 -1 q 612 44 592 28 q 647 76 632 61 l 621 103 q 585 76 604 90 q 540 51 565 63 q 480 32 514 39 q 400 25 446 25 q 167 336 167 25 q 185 484 167 424 q 236 582 204 544 q 312 637 268 619 q 406 654 356 654 q 478 647 446 654 q 536 626 510 639 q 583 598 563 614 q 622 564 604 582 l 644 586 q 609 623 629 604 q 560 658 589 642 q 494 683 532 674 q 406 693 456 693 q 270 672 336 693 q 153 606 204 650 q 70 494 101 561 q 39 336 39 426 z "},"è":{"ha":556,"x_min":69,"x_max":494,"o":"m 340 754 l 229 892 q 185 918 210 918 q 163 910 172 918 q 153 890 153 903 q 158 871 153 881 q 179 851 164 861 l 340 754 m 494 639 l 494 681 l 174 681 q 97 652 125 681 q 69 578 69 624 l 69 104 q 94 28 69 57 q 171 0 118 0 l 494 0 l 494 42 l 268 42 q 211 60 228 42 q 194 110 194 78 l 194 336 l 451 336 l 451 378 l 194 378 l 194 576 q 210 622 194 604 q 261 639 226 639 l 494 639 z "},"é":{"ha":556,"x_min":69,"x_max":494,"o":"m 494 639 l 494 681 l 174 681 q 97 652 125 681 q 69 578 69 624 l 69 104 q 94 28 69 57 q 171 0 118 0 l 494 0 l 494 42 l 268 42 q 211 60 228 42 q 194 110 194 78 l 194 336 l 451 336 l 451 378 l 194 378 l 194 576 q 210 622 194 604 q 261 639 226 639 l 494 639 m 415 918 q 371 892 390 918 l 260 754 l 421 851 q 442 871 436 861 q 447 890 447 881 q 438 910 447 903 q 415 918 428 918 z "},"ê":{"ha":556,"x_min":69,"x_max":494,"o":"m 264 890 l 111 736 l 144 736 l 285 835 l 424 736 l 458 736 l 306 890 l 264 890 m 494 639 l 494 681 l 174 681 q 97 652 125 681 q 69 578 69 624 l 69 104 q 94 28 69 57 q 171 0 118 0 l 494 0 l 494 42 l 268 42 q 211 60 228 42 q 194 110 194 78 l 194 336 l 451 336 l 451 378 l 194 378 l 194 576 q 210 622 194 604 q 261 639 226 639 l 494 639 z "},"ë":{"ha":556,"x_min":69,"x_max":494,"o":"m 260 814 q 241 859 260 840 q 196 878 222 878 q 151 859 169 878 q 132 814 132 840 q 151 769 132 788 q 196 750 169 750 q 241 769 222 750 q 260 814 260 788 m 460 814 q 441 859 460 840 q 396 878 422 878 q 351 859 369 878 q 332 814 332 840 q 351 769 332 788 q 396 750 369 750 q 441 769 422 750 q 460 814 460 788 m 494 639 l 494 681 l 174 681 q 97 652 125 681 q 69 578 69 624 l 69 104 q 94 28 69 57 q 171 0 118 0 l 494 0 l 494 42 l 268 42 q 211 60 228 42 q 194 110 194 78 l 194 336 l 451 336 l 451 378 l 194 378 l 194 576 q 210 622 194 604 q 261 639 226 639 l 494 639 z "},"ì":{"ha":278,"x_min":-17,"x_max":201,"o":"m 171 754 l 60 892 q 15 918 40 918 q -7 910 3 918 q -17 890 -17 903 q -11 871 -17 881 q 10 851 -6 861 l 171 754 m 201 0 l 201 681 l 76 681 l 76 0 l 201 0 z "},"í":{"ha":278,"x_min":76,"x_max":303,"o":"m 201 681 l 76 681 l 76 0 l 201 0 l 201 681 m 271 918 q 226 892 246 918 l 115 754 l 276 851 q 297 871 292 861 q 303 890 303 881 q 293 910 303 903 q 271 918 283 918 z "},"î":{"ha":299,"x_min":-25,"x_max":322,"o":"m 128 889 l -25 736 l 8 736 l 149 835 l 288 736 l 322 736 l 169 889 l 128 889 m 210 681 l 85 681 l 85 0 l 210 0 l 210 681 z "},"ï":{"ha":319,"x_min":-3,"x_max":325,"o":"m 97 681 l 97 0 l 222 0 l 222 681 l 97 681 m 125 814 q 106 859 125 840 q 61 878 88 878 q 16 859 35 878 q -3 814 -3 840 q 16 769 -3 788 q 61 750 35 750 q 106 769 88 750 q 125 814 125 788 m 325 814 q 306 859 325 840 q 261 878 288 878 q 216 859 235 878 q 197 814 197 840 q 216 769 197 788 q 261 750 235 750 q 306 769 288 750 q 325 814 325 788 z "},"ð":{"ha":799,"x_min":38,"x_max":775,"o":"m 161 342 q 176 462 161 404 q 221 563 190 519 q 297 633 251 607 q 404 660 343 660 q 511 633 465 660 q 588 561 557 606 q 635 460 619 517 q 650 342 650 403 q 635 221 650 279 q 589 119 619 163 q 512 49 558 75 q 404 22 465 22 q 297 50 343 22 q 222 123 251 78 q 176 225 192 168 q 161 342 161 282 m 604 650 q 514 688 564 674 q 404 701 464 701 q 244 671 313 701 q 129 590 175 640 q 60 475 83 540 q 38 342 38 410 q 60 210 38 275 q 128 94 82 146 q 242 12 174 43 q 404 -19 311 -19 q 565 10 496 -19 q 681 90 635 40 q 751 204 728 140 q 775 336 775 268 q 753 533 775 442 q 694 699 731 624 q 613 834 658 775 q 519 933 567 893 l 646 1013 l 590 1049 l 468 972 q 322 1043 399 1019 l 272 994 q 406 933 342 971 l 285 857 l 340 821 l 460 896 q 544 794 506 861 q 604 650 583 726 z "},"ñ":{"ha":636,"x_min":69,"x_max":567,"o":"m 115 796 l 150 763 q 187 790 165 775 q 253 804 208 804 q 289 797 274 804 q 319 778 304 789 q 358 756 338 767 q 410 744 378 744 q 485 762 456 744 q 536 803 514 779 l 504 832 q 466 805 488 815 q 407 794 444 794 q 370 804 388 794 q 335 825 353 814 q 299 844 318 836 q 253 853 279 853 q 169 834 200 853 q 115 796 138 815 m 69 596 l 69 0 l 111 0 l 111 511 q 115 533 111 524 q 128 542 118 542 q 144 534 139 542 q 161 511 150 526 l 500 31 q 517 9 510 18 q 540 0 525 0 q 562 10 557 0 q 567 36 567 21 l 567 681 l 526 681 l 526 256 q 524 238 526 244 q 515 231 522 231 q 503 238 508 231 q 493 253 499 246 l 224 642 q 191 677 208 663 q 136 692 174 692 q 85 666 101 692 q 69 596 69 640 z "},"ò":{"ha":799,"x_min":38,"x_max":774,"o":"m 429 754 l 318 892 q 274 918 299 918 q 251 910 261 918 q 242 890 242 903 q 247 871 242 881 q 268 851 253 861 l 429 754 m 774 342 q 751 472 774 408 q 682 588 728 536 q 567 670 636 639 q 404 701 497 701 q 244 671 313 701 q 129 590 175 640 q 60 475 83 540 q 38 342 38 410 q 60 210 38 275 q 128 94 82 146 q 242 12 174 43 q 404 -19 311 -19 q 565 11 496 -19 q 681 92 635 42 q 751 207 728 142 q 774 342 774 272 m 161 342 q 176 462 161 404 q 221 563 190 519 q 297 633 251 607 q 404 660 343 660 q 511 633 465 660 q 588 561 557 606 q 635 460 619 517 q 650 342 650 403 q 635 221 650 279 q 589 119 619 163 q 512 49 558 75 q 404 22 465 22 q 297 50 343 22 q 222 123 251 78 q 176 225 192 168 q 161 342 161 282 z "},"ó":{"ha":799,"x_min":38,"x_max":774,"o":"m 774 342 q 751 472 774 408 q 682 588 728 536 q 567 670 636 639 q 404 701 497 701 q 244 671 313 701 q 129 590 175 640 q 60 475 83 540 q 38 342 38 410 q 60 210 38 275 q 128 94 82 146 q 242 12 174 43 q 404 -19 311 -19 q 565 11 496 -19 q 681 92 635 42 q 751 207 728 142 q 774 342 774 272 m 161 342 q 176 462 161 404 q 221 563 190 519 q 297 633 251 607 q 404 660 343 660 q 511 633 465 660 q 588 561 557 606 q 635 460 619 517 q 650 342 650 403 q 635 221 650 279 q 589 119 619 163 q 512 49 558 75 q 404 22 465 22 q 297 50 343 22 q 222 123 251 78 q 176 225 192 168 q 161 342 161 282 m 526 918 q 482 892 501 918 l 371 754 l 532 851 q 553 871 547 861 q 558 890 558 881 q 549 910 558 903 q 526 918 539 918 z "},"ô":{"ha":799,"x_min":38,"x_max":774,"o":"m 379 892 l 226 736 l 260 736 l 400 835 l 539 736 l 574 736 l 421 892 l 379 892 m 774 342 q 751 472 774 408 q 682 588 728 536 q 567 670 636 639 q 404 701 497 701 q 244 671 313 701 q 129 590 175 640 q 60 475 83 540 q 38 342 38 410 q 60 210 38 275 q 128 94 82 146 q 242 12 174 43 q 404 -19 311 -19 q 565 11 496 -19 q 681 92 635 42 q 751 207 728 142 q 774 342 774 272 m 161 342 q 176 462 161 404 q 221 563 190 519 q 297 633 251 607 q 404 660 343 660 q 511 633 465 660 q 588 561 557 606 q 635 460 619 517 q 650 342 650 403 q 635 221 650 279 q 589 119 619 163 q 512 49 558 75 q 404 22 465 22 q 297 50 343 22 q 222 123 251 78 q 176 225 192 168 q 161 342 161 282 z "},"õ":{"ha":799,"x_min":38,"x_max":774,"o":"m 185 796 l 219 763 q 256 790 235 775 q 322 804 278 804 q 358 797 343 804 q 389 778 374 789 q 427 756 407 767 q 479 744 447 744 q 554 762 525 744 q 606 803 583 779 l 574 832 q 535 805 557 815 q 476 794 514 794 q 440 804 457 794 q 404 825 422 814 q 368 844 388 836 q 322 853 349 853 q 238 834 269 853 q 185 796 207 815 m 774 342 q 751 472 774 408 q 682 588 728 536 q 567 670 636 639 q 404 701 497 701 q 244 671 313 701 q 129 590 175 640 q 60 475 83 540 q 38 342 38 410 q 60 210 38 275 q 128 94 82 146 q 242 12 174 43 q 404 -19 311 -19 q 565 11 496 -19 q 681 92 635 42 q 751 207 728 142 q 774 342 774 272 m 161 342 q 176 462 161 404 q 221 563 190 519 q 297 633 251 607 q 404 660 343 660 q 511 633 465 660 q 588 561 557 606 q 635 460 619 517 q 650 342 650 403 q 635 221 650 279 q 589 119 619 163 q 512 49 558 75 q 404 22 465 22 q 297 50 343 22 q 222 123 251 78 q 176 225 192 168 q 161 342 161 282 z "},"ö":{"ha":799,"x_min":38,"x_max":774,"o":"m 374 814 q 355 859 374 840 q 310 878 336 878 q 265 859 283 878 q 246 814 246 840 q 265 769 246 788 q 310 750 283 750 q 355 769 336 750 q 374 814 374 788 m 574 814 q 555 859 574 840 q 510 878 536 878 q 465 859 483 878 q 446 814 446 840 q 465 769 446 788 q 510 750 483 750 q 555 769 536 750 q 574 814 574 788 m 774 342 q 751 472 774 408 q 682 588 728 536 q 567 670 636 639 q 404 701 497 701 q 244 671 313 701 q 129 590 175 640 q 60 475 83 540 q 38 342 38 410 q 60 210 38 275 q 128 94 82 146 q 242 12 174 43 q 404 -19 311 -19 q 565 11 496 -19 q 681 92 635 42 q 751 207 728 142 q 774 342 774 272 m 161 342 q 176 462 161 404 q 221 563 190 519 q 297 633 251 607 q 404 660 343 660 q 511 633 465 660 q 588 561 557 606 q 635 460 619 517 q 650 342 650 403 q 635 221 650 279 q 589 119 619 163 q 512 49 558 75 q 404 22 465 22 q 297 50 343 22 q 222 123 251 78 q 176 225 192 168 q 161 342 161 282 z "},"÷":{"ha":438,"x_min":71,"x_max":372,"o":"m 372 394 l 71 394 l 71 325 l 372 325 l 372 394 m 283 196 q 265 241 283 222 q 219 260 246 260 q 174 241 193 260 q 156 196 156 222 q 174 151 156 169 q 219 132 193 132 q 265 151 246 132 q 283 196 283 169 m 283 529 q 265 574 283 556 q 219 593 246 593 q 174 574 193 593 q 156 529 156 556 q 174 484 156 503 q 219 465 193 465 q 265 484 246 465 q 283 529 283 503 z "},"ø":{"ha":799,"x_min":38,"x_max":774,"o":"m 111 -14 l 174 53 q 275 0 218 19 q 404 -19 332 -19 q 565 11 496 -19 q 681 92 635 42 q 751 207 728 142 q 774 342 774 272 q 749 477 774 411 q 675 594 724 543 l 736 660 l 688 708 l 624 639 q 526 685 581 668 q 404 701 471 701 q 244 671 313 701 q 129 590 175 640 q 60 475 83 540 q 38 342 38 410 q 58 214 38 276 q 124 100 79 151 l 63 35 l 111 -14 m 574 586 l 193 175 q 161 342 161 254 q 176 464 161 404 q 221 569 190 524 q 297 643 251 615 q 404 671 343 671 q 501 648 460 671 q 574 586 543 625 m 404 18 q 302 44 346 18 q 228 111 258 69 l 611 526 q 640 438 631 485 q 650 342 650 390 q 635 220 650 279 q 589 117 619 161 q 512 45 558 72 q 404 18 465 18 z "},"ù":{"ha":626,"x_min":71,"x_max":557,"o":"m 382 754 l 271 892 q 226 918 251 918 q 204 910 214 918 q 194 890 194 903 q 200 871 194 881 q 221 851 206 861 l 382 754 m 210 221 l 210 681 l 71 681 l 71 242 q 140 53 71 115 q 338 -10 210 -10 q 499 53 440 -10 q 557 247 557 117 l 557 681 l 515 681 l 515 232 q 470 88 515 136 q 357 39 425 39 q 242 90 275 39 q 210 221 210 142 z "},"ú":{"ha":626,"x_min":71,"x_max":557,"o":"m 210 221 l 210 681 l 71 681 l 71 242 q 140 53 71 115 q 338 -10 210 -10 q 499 53 440 -10 q 557 247 557 117 l 557 681 l 515 681 l 515 232 q 470 88 515 136 q 357 39 425 39 q 242 90 275 39 q 210 221 210 142 m 465 918 q 421 892 440 918 l 310 754 l 471 851 q 492 871 486 861 q 497 890 497 881 q 488 910 497 903 q 465 918 478 918 z "},"û":{"ha":626,"x_min":71,"x_max":557,"o":"m 307 890 l 154 736 l 188 736 l 328 835 l 467 736 l 501 736 l 349 890 l 307 890 m 210 221 l 210 681 l 71 681 l 71 242 q 140 53 71 115 q 338 -10 210 -10 q 499 53 440 -10 q 557 247 557 117 l 557 681 l 515 681 l 515 232 q 470 88 515 136 q 357 39 425 39 q 242 90 275 39 q 210 221 210 142 z "},"ü":{"ha":626,"x_min":71,"x_max":557,"o":"m 276 814 q 258 859 276 840 q 213 878 239 878 q 167 859 186 878 q 149 814 149 840 q 167 769 149 788 q 213 750 186 750 q 258 769 239 750 q 276 814 276 788 m 476 814 q 458 859 476 840 q 413 878 439 878 q 367 859 386 878 q 349 814 349 840 q 367 769 349 788 q 413 750 386 750 q 458 769 439 750 q 476 814 476 788 m 210 221 l 210 681 l 71 681 l 71 242 q 140 53 71 115 q 338 -10 210 -10 q 499 53 440 -10 q 557 247 557 117 l 557 681 l 515 681 l 515 232 q 470 88 515 136 q 357 39 425 39 q 242 90 275 39 q 210 221 210 142 z "},"ý":{"ha":750,"x_min":31,"x_max":735,"o":"m 171 681 l 31 681 l 378 28 l 247 -250 l 289 -250 l 735 681 l 690 681 l 444 165 l 171 681 m 524 918 q 479 892 499 918 l 368 754 l 529 851 q 550 871 544 861 q 556 890 556 881 q 546 910 556 903 q 524 918 536 918 z "},"þ":{"ha":778,"x_min":69,"x_max":740,"o":"m 69 1039 l 69 -275 l 194 -275 l 194 0 l 361 0 q 527 30 456 0 q 646 108 599 60 q 717 216 693 156 q 740 338 740 276 q 717 466 740 404 q 646 576 693 528 q 528 652 599 624 q 361 681 457 681 l 194 681 l 194 1039 l 69 1039 m 194 42 l 194 639 l 368 639 q 472 617 428 639 q 547 554 517 594 q 593 459 578 514 q 608 338 608 404 q 594 222 608 276 q 550 128 579 168 q 477 65 521 88 q 375 42 433 42 l 194 42 z "},"ÿ":{"ha":750,"x_min":31,"x_max":735,"o":"m 374 814 q 355 859 374 840 q 310 878 336 878 q 265 859 283 878 q 246 814 246 840 q 265 769 246 788 q 310 750 283 750 q 355 769 336 750 q 374 814 374 788 m 574 814 q 555 859 574 840 q 510 878 536 878 q 465 859 483 878 q 446 814 446 840 q 465 769 446 788 q 510 750 483 750 q 555 769 536 750 q 574 814 574 788 m 171 681 l 31 681 l 378 28 l 247 -250 l 289 -250 l 735 681 l 690 681 l 444 165 l 171 681 z "},"":{"ha":0,"x_min":0,"x_max":0,"o":""},"":{"ha":0,"x_min":0,"x_max":0,"o":""},"":{"ha":0,"x_min":0,"x_max":0,"o":""},"":{"ha":644,"x_min":79,"x_max":565,"o":"m 565 396 l 79 396 l 79 339 l 565 339 l 565 396 z "},"":{"ha":368,"x_min":44,"x_max":339,"o":"m 339 529 l 44 529 l 44 488 l 339 488 l 339 529 m 69 435 l 69 418 l 225 418 l 94 265 l 210 265 q 249 229 249 265 q 232 188 249 211 l 94 -1 l 160 -1 l 288 178 q 299 199 294 188 q 303 225 303 210 q 285 265 303 249 q 235 281 268 281 l 172 281 l 303 435 l 69 435 m 225 1013 l 107 994 l 110 972 l 163 982 l 163 576 l 225 576 l 225 1013 z "},"":{"ha":368,"x_min":18,"x_max":339,"o":"m 339 529 l 44 529 l 44 488 l 339 488 l 339 529 m 296 435 l 232 435 l 18 143 l 233 143 l 233 -1 l 296 -1 l 296 143 l 335 143 l 335 168 l 296 168 l 296 435 m 225 1013 l 107 994 l 110 972 l 163 982 l 163 576 l 225 576 l 225 1013 m 233 168 l 64 168 l 233 397 l 233 168 z "},"":{"ha":368,"x_min":36,"x_max":331,"o":"m 331 529 l 36 529 l 36 488 l 331 488 l 331 529 m 57 913 l 85 913 q 115 967 92 942 q 178 992 139 992 q 242 972 222 992 q 263 913 263 951 q 246 847 263 876 q 207 790 229 818 l 50 575 l 314 575 l 314 600 l 131 600 l 249 761 q 295 833 276 799 q 314 913 314 868 q 276 994 314 968 q 186 1019 239 1019 q 98 988 129 1019 q 57 913 67 957 m 72 435 l 72 418 l 228 418 l 97 265 l 213 265 q 251 229 251 265 q 235 188 251 211 l 97 -1 l 163 -1 l 290 178 q 301 199 297 188 q 306 225 306 210 q 288 265 306 249 q 238 281 271 281 l 175 281 l 306 435 l 72 435 z "},"":{"ha":368,"x_min":18,"x_max":339,"o":"m 339 529 l 44 529 l 44 488 l 339 488 l 339 529 m 72 1011 l 72 994 l 228 994 l 97 842 l 213 842 q 251 806 251 842 q 235 764 251 788 l 97 575 l 163 575 l 290 754 q 301 775 297 764 q 306 801 306 786 q 288 841 306 825 q 238 857 271 857 l 175 857 l 306 1011 l 72 1011 m 296 436 l 232 436 l 18 144 l 233 144 l 233 0 l 296 0 l 296 144 l 335 144 l 335 169 l 296 169 l 296 436 m 233 169 l 64 169 l 233 399 l 233 169 z "},"":{"ha":1104,"x_min":97,"x_max":1014,"o":"m 1014 917 l 97 917 l 97 0 l 1014 0 l 1014 917 m 983 886 l 983 31 l 128 31 l 128 886 l 983 886 z "},"":{"ha":879,"x_min":47,"x_max":813,"o":"m 107 311 l 47 225 q 97 183 74 208 q 142 127 121 158 q 182 61 164 96 q 215 -7 200 26 q 329 174 263 82 q 474 349 396 265 q 638 506 551 433 q 813 632 725 579 l 813 772 q 695 688 756 739 q 576 577 635 638 q 463 450 518 517 q 360 317 407 383 q 276 190 313 251 q 217 79 239 129 q 171 193 199 138 q 107 311 143 249 z "},"":{"ha":1078,"x_min":54,"x_max":1024,"o":"m 453 363 l 453 538 l 625 538 l 625 363 l 453 363 m 385 733 l 385 606 l 257 606 q 160 641 200 606 q 119 735 119 676 q 158 836 119 797 q 256 875 196 875 q 312 863 288 875 q 352 832 336 851 q 376 787 368 813 q 385 733 385 761 m 254 538 l 385 538 l 385 363 l 254 363 q 176 348 213 363 q 112 306 139 333 q 69 242 85 279 q 54 161 54 206 q 69 82 54 118 q 109 19 83 46 q 171 -22 135 -7 q 250 -36 207 -36 q 338 -21 300 -36 q 402 22 376 -6 q 440 85 428 49 q 453 164 453 122 l 453 294 l 625 294 l 625 164 q 638 85 625 122 q 677 22 651 49 q 740 -21 703 -6 q 828 -36 778 -36 q 906 -21 871 -36 q 968 21 942 -6 q 1009 83 994 47 q 1024 161 1024 119 q 1008 242 1024 206 q 965 306 992 279 q 901 348 938 333 q 824 363 865 363 l 693 363 l 693 538 l 824 538 q 901 552 865 538 q 965 594 938 567 q 1008 658 992 621 q 1024 739 1024 694 q 1009 818 1024 782 q 968 881 994 854 q 906 922 942 907 q 828 936 869 936 q 740 920 778 936 q 677 877 703 904 q 638 814 651 850 q 625 736 625 778 l 625 606 l 453 606 l 453 736 q 440 814 453 778 q 402 877 428 850 q 338 920 376 904 q 250 936 300 936 q 171 921 207 936 q 109 879 135 906 q 69 817 83 853 q 54 739 54 781 q 69 658 54 694 q 112 594 85 621 q 176 553 139 568 q 254 538 213 538 m 958 735 q 918 641 958 676 q 821 606 878 606 l 693 606 l 693 733 q 701 787 693 761 q 726 832 710 813 q 766 863 742 851 q 822 875 790 875 q 920 836 882 875 q 958 735 958 797 m 693 167 l 693 294 l 821 294 q 918 259 878 294 q 958 165 958 224 q 920 64 958 103 q 822 25 882 25 q 766 37 790 25 q 726 68 742 49 q 701 113 710 88 q 693 167 693 139 m 119 165 q 160 259 119 224 q 257 294 200 294 l 385 294 l 385 167 q 376 113 385 139 q 352 68 368 88 q 312 37 336 49 q 256 25 288 25 q 158 64 196 25 q 119 165 119 103 z "},"":{"ha":486,"x_min":0,"x_max":0,"o":""},"":{"ha":743,"x_min":50,"x_max":689,"o":"m 369 694 l 50 375 l 369 56 l 689 375 l 369 694 m 626 375 l 369 118 l 113 375 l 369 632 l 626 375 z "},"":{"ha":1097,"x_min":117,"x_max":1019,"o":"m 382 736 q 272 716 321 736 q 188 660 222 696 q 135 574 154 624 q 117 465 117 524 q 154 279 117 367 q 244 126 192 192 q 351 23 296 61 q 442 -15 406 -15 q 492 -5 468 -15 q 533 28 515 6 q 558 44 543 39 q 589 50 574 50 q 619 44 604 50 q 643 28 633 39 q 744 -18 681 -18 q 842 12 799 -18 q 921 85 886 42 q 980 175 956 128 q 1019 257 1004 222 q 967 282 992 265 q 922 324 942 299 q 890 381 901 349 q 878 454 878 414 q 887 518 878 490 q 910 567 896 546 q 945 608 925 589 q 989 643 965 626 q 965 681 985 664 q 919 711 946 699 q 861 731 893 724 q 800 738 829 738 q 735 728 765 738 q 683 703 704 719 q 634 673 656 681 q 592 665 613 665 q 554 674 571 665 q 508 703 538 683 q 451 728 485 719 q 382 736 418 736 m 742 929 q 683 912 713 929 q 628 867 653 894 q 587 808 603 840 q 571 743 571 775 q 574 727 571 735 q 588 719 576 719 q 651 740 621 719 q 705 792 682 761 q 742 856 728 822 q 756 917 756 890 q 742 929 756 929 z "}}}
